<?xml version="1.0" ?><svg fill="white" id="Layer_1" style="enable-background:new 0 0 497.531 245.154;" version="1.1" viewBox="0 0 497.531 245.154" xml:space="preserve" xmlns="http://www.w3.org/2000/svg" xmlns:xlink="http://www.w3.org/1999/xlink"><g><path d="M435.078,57.347h-74.239c-6.313,0-11.478,5.166-11.478,11.479v85.514H12.234v36.986H6.534c-4.673,0-4.673,16.991,0,16.991   h22.854v8.323h10.141c-0.381-2.304-0.588-4.665-0.588-7.075c0-23.841,19.398-43.24,43.241-43.24   c23.844,0,43.245,19.399,43.245,43.24c0,2.41-0.208,4.772-0.588,7.075h10.141v-8.323h231.667v8.323h10.141   c-0.381-2.304-0.588-4.665-0.588-7.075c0-23.841,19.398-43.24,43.241-43.24c23.844,0,43.245,19.399,43.245,43.24   c0,2.41-0.208,4.772-0.589,7.075h10.141v-8.323h21.79c4.673,0,4.673-16.991,0-16.991h-5.683v-43.343   c0-6.313-2.411-16.048-5.36-21.631L451.916,67.5C448.969,61.915,441.392,57.347,435.078,57.347z M376.187,68.825v54.794h-15.348   V68.825H376.187z M413.363,141.81H387.38v-6.123h25.983V141.81z M382.312,123.619V68.825h52.765c2.045,0,5.731,2.228,6.686,4.032   l26.796,50.762H382.312z"/><path d="M0,8.636v136.668h339.636V8.636c0-4.77-3.867-8.636-8.636-8.636H8.636C3.867,0,0,3.867,0,8.636z"/><path d="M117.771,209.565c0-19.653-15.932-35.587-35.589-35.587c-19.654,0-35.589,15.934-35.589,35.587   c0,19.655,15.935,35.589,35.589,35.589C101.84,245.154,117.771,229.22,117.771,209.565z M82.18,229.848   c-11.182,0-20.279-9.098-20.279-20.283c0-11.183,9.098-20.279,20.279-20.279c11.185,0,20.284,9.096,20.284,20.279   C102.464,220.749,93.365,229.848,82.18,229.848z"/><ellipse cx="82.183" cy="209.566" rx="7.341" ry="7.341" transform="matrix(0.3827 -0.9239 0.9239 0.3827 -142.8814 205.2954)"/><path d="M455.029,209.565c0-19.653-15.932-35.587-35.589-35.587c-19.654,0-35.589,15.934-35.589,35.587   c0,19.655,15.935,35.589,35.589,35.589C439.097,245.154,455.029,229.22,455.029,209.565z M419.438,229.848   c-11.182,0-20.279-9.098-20.279-20.283c0-11.183,9.097-20.279,20.279-20.279c11.185,0,20.284,9.096,20.284,20.279   C439.722,220.749,430.623,229.848,419.438,229.848z"/><ellipse cx="419.44" cy="209.566" rx="7.341" ry="7.341" transform="matrix(0.3827 -0.9239 0.9239 0.3827 65.3133 516.8809)"/></g></svg>