<?xml version="1.0" encoding="utf-8"?>
<!-- Generator: Adobe Illustrator 26.1.0, SVG Export Plug-In . SVG Version: 6.00 Build 0)  -->
<svg version="1.1" id="Layer_1" xmlns="http://www.w3.org/2000/svg" xmlns:xlink="http://www.w3.org/1999/xlink" x="0px" y="0px"
	 viewBox="0 0 252 144" style="enable-background:new 0 0 252 144;" xml:space="preserve">
<style type="text/css">
	.st0{fill:#FFFFFF;}
</style>
<path class="st0" d="M231.6,74.8c-39.1-45-88.3-48.1-90.4-48.2c-0.9,0-1.9,0.3-2.5,1.1c-0.6,0.7-0.9,1.7-0.7,2.6l2.9,13.9
	c0.2,0.8,0.7,1.5,1.4,2l9.7,6.1l-5.3,3.1l-8.6-3.6l-2.4,5.6l4.4,1.9l-3.5,2.1l-80-8.6c-0.9-0.1-1.9,0.2-2.5,0.9L42,66.4L16.1,82.2
	c-0.7,0.4-1.2,1.2-1.4,2c-0.2,0.8,0,1.7,0.6,2.4l15.3,20.4c0.6,0.8,1.5,1.2,2.4,1.2l127.1,0c2.1-0.1,50.5-3.3,71.5-29.6
	C232.6,77.6,232.5,75.9,231.6,74.8z M160,102.2H34.5L23,86.9h137c0.2,0,0.5,0,0.7-0.1l20-7.2h41.8C201.3,99.5,160.2,102.2,160,102.2
	z"/>
</svg>
