<?xml version="1.0" encoding="utf-8"?>
<!-- Generator: Adobe Illustrator 26.1.0, SVG Export Plug-In . SVG Version: 6.00 Build 0)  -->
<svg version="1.1" id="Layer_1" xmlns="http://www.w3.org/2000/svg" xmlns:xlink="http://www.w3.org/1999/xlink" x="0px" y="0px"
	 viewBox="0 0 700 700" style="enable-background:new 0 0 700 700;" xml:space="preserve">
<style type="text/css">
	.st0{fill-rule:evenodd;clip-rule:evenodd;fill:#FFFFFF;}
</style>
<path class="st0" d="M336.8,197.8c-1.1-1.1-5.8-0.8-7,0.4c-5.8,5.7-13.4,13.2-13.4,13.2l-12.1-13.2l-9.1,8.6l12.2,13.3l-3.2,3.2
	l53.6,78.7c-0.2,2.4-0.4,4.9-0.6,7.4h-18.8c-3.9-10.6-16.7-50.6-68.3-78.8l-0.1-111.4l74.2,0.7c0,0,10.6,40.5,14.2,99.9L336.8,197.8
	z M209.5,219c-0.8-22.8-9.9-54.4-9.9-54.4l-1.9-8.4c0,0,6.2-0.5,9.3-0.7c1.1-0.1,4.9,5.4,5.5,7.5c4.3,14.4,12.6,41.7,12.6,41.7
	s15.8,0.2,23.7,0.3c2.1,0,7,3.7,7.4,5.5c0.7,2.9,1.3,5.8,2,8.7c0.2,1.1-4.8,3.2-7.6,3.1c-3.1,0-6.3-0.1-9.4-0.1
	c7.1,1.5,14.6,3.7,22.1,6.7l-0.6-109.4h-71.1c0,0-9,54.2-9,102.3C182.8,221.7,193.4,219.1,209.5,219L209.5,219z M446.6,401.9
	c-1.4-6.2-2.2-12.7-2.2-19.4c0-47.3,37.7-85.6,84.3-85.6c10.8,0,21.2,2.1,30.7,5.9c-4-22.9-11.4-56.7-21.9-66.9
	c-4.3-3.4-87-17.7-143-17.7v-79.7h-18.7v80.3c-3.1,0.2-6,0.5-8.8,0.9c0,0-0.8-60.8-16.7-111.5c-43.1-9.9-121.2-8.7-177-2.9l9.5,12.1
	c0,0-10,46.1-10,107.7c-54.1,15.2-68.4,43.2-68.4,43.2l13.1,10.6c20.4-23.5,50.3-38.3,83.6-38.3c61.6,0,111.6,50.7,111.6,113.3
	c0,11.1-1.6,21.8-4.5,32l8.6,18l81.1-2.3l1.2-20h31.2l6.1,21.4L446.6,401.9L446.6,401.9z M388.2,138.4H382V113h6.2V138.4z
	 M481.3,271.3l-12.3-2.4l-5.9-33.7l12.7,1.3L481.3,271.3z M449.8,268.7l-11.7-1.3l-6.8-35.9l12.6,1.5L449.8,268.7z M499.6,273.6
	l44.4,11.5c-3.2-23-12.7-38.1-12.7-38.1l-37.6-7.9L499.6,273.6z M315.6,187.5l-31.9,30.3c-1.2,1.2-3.2,1.1-4.4-0.2
	c-1.1-1.2-1.1-3.3,0.2-4.5l31.9-30.3c1.2-1.2,3.2-1.1,4.4,0.2C316.9,184.3,316.9,186.3,315.6,187.5z M248.6,447.8
	c-3.1-2.4-6.6-4.9-6.6-4.9s-10.5,4.4-11.3,4.7c-0.1,0.3-2.3-7.2-2.3-7.2l0.6,12.8l0.2,2c-8.5,2.3-17.4,3.5-26.7,3.5
	c-0.6,0-1.2,0-1.8,0c-1.4-3.6-3.4-7.3-3.4-7.3s-11.3-1-12.1-1c-0.2,0.3,1.2-7.5,1.2-7.5l-5.2,11.7l-0.6,1.8
	c-8.7-1.9-17.1-4.9-24.8-8.9c0.2-3.7,0-7.6,0-7.6s-9.8-5.9-10.5-6.3c-0.3,0.1,4.3-6.2,4.3-6.2l-9.7,8.2l-1.1,1.1
	c-6.5-5.1-12.4-11-17.6-17.5c1.7-3.2,3.1-6.7,3.1-6.7s-6.4-9.6-6.8-10.2c-0.4,0,6.5-3.8,6.5-3.8l-12.2,3.2l-1.5,0.5
	c-4.1-7.8-7.2-16.2-9.3-25c3.1-2.1,6-4.9,6-4.9s-1.6-11.5-1.7-12.3c-0.3-0.2,7.4-0.5,7.4-0.5l-12.4-2.5l-2.1-0.3
	c-0.1-1.4-0.1-2.8-0.1-4.3c0-7.6,0.8-15,2.3-22.1c3.9-0.5,8.2-1.8,8.2-1.8s3.5-11,3.7-11.8c-0.2-0.3,6.9,2.8,6.9,2.8l-10-7.8
	l-2.5-1.6c4-9.3,9.3-18,15.6-25.7c2.6,0.8,4.8,1.5,4.8,1.5s8-8.2,8.6-8.8c0-0.4,4.9,5.7,4.9,5.7l-5.5-11.6
	c8.8-7.6,18.9-13.7,29.8-18c2.2,2,4.1,3.6,4.1,3.6s10.9-3.4,11.6-3.7c0.1-0.3,1.7,7.4,1.7,7.4l0.5-12.6c6.4-1.2,13-1.9,19.8-1.9
	c5.2,0,10.3,0.4,15.3,1.1c0.8,2.4,1.5,4.3,1.5,4.3s11.1,2.6,11.9,2.7c0.3-0.2-2.2,7.2-2.2,7.2l6.3-10.1c13,4.4,24.9,11.3,35.1,20.1
	c-0.7,2.9-1.3,5.5-1.3,5.5s7.9,8.3,8.5,8.9c0.4,0-5.7,4.9-5.7,4.9l11.5-5.3l0.3-0.1c6.9,8.6,12.5,18.3,16.5,28.8
	c-2.1,2.4-3.8,4.7-3.8,4.7s3.6,11,3.8,11.8c0.3,0.1-7.2,1.8-7.2,1.8l12.4,0.3c1.2,6.4,1.8,12.9,1.8,19.6c0,5.6-0.4,11-1.2,16.4
	c-2.5,1-4.6,1.8-4.6,1.8s-2.1,11.4-2.3,12.2c0.2,0.3-7.2-2-7.2-2l9.8,5.8c-3,8.9-7,17.2-12.1,24.8c-3.7-0.6-7.5-0.9-7.5-0.9
	s-7.1,9-7.6,9.6c0.1,0.4-5.4-5.2-5.4-5.2l6.6,10.9l1.1,1.5C268.5,435.6,259,442.6,248.6,447.8L248.6,447.8z M263.4,354
	c0-35-27.9-63.4-62.4-63.4c-34.5,0-62.4,28.4-62.4,63.4c0,35,27.9,63.4,62.4,63.4C235.5,417.4,263.4,389,263.4,354z M201,405.3
	c27.9,0,50.5-23,50.5-51.3s-22.6-51.3-50.5-51.3s-50.5,23-50.5,51.3S173.1,405.3,201,405.3L201,405.3z M201,392
	c20.7,0,37.4-17,37.4-38s-16.8-38-37.4-38s-37.4,17-37.4,38S180.3,392,201,392L201,392z M560.1,446.1c-2.2-1.7-4.8-3.5-4.8-3.5
	s-7.6,3.1-8.1,3.4c-0.1,0.2-1.6-5.2-1.6-5.2l0.4,9.2l0.2,1.4c-6.1,1.6-12.5,2.5-19.1,2.5c-0.4,0-0.9,0-1.3,0c-1-2.6-2.5-5.2-2.5-5.2
	s-8.1-0.7-8.7-0.7c-0.2,0.2,0.8-5.4,0.8-5.4l-3.7,8.4l-0.5,1.3c-6.2-1.4-12.2-3.5-17.8-6.4c0.2-2.6,0-5.4,0-5.4s-7-4.2-7.5-4.5
	c-0.2,0.1,3.1-4.4,3.1-4.4l-7,5.9l-0.8,0.8c-4.7-3.7-8.9-7.9-12.6-12.5c1.2-2.3,2.2-4.8,2.2-4.8s-4.6-6.9-4.9-7.3
	c-0.3,0,4.6-2.7,4.6-2.7l-8.8,2.3l-1.1,0.4c-2.9-5.6-5.2-11.6-6.6-17.9c2.2-1.5,4.3-3.5,4.3-3.5s-1.2-8.2-1.2-8.8
	c-0.2-0.1,5.3-0.4,5.3-0.4l-8.9-1.8l-1.5-0.2c0-1-0.1-2-0.1-3.1c0-5.4,0.6-10.7,1.6-15.9c2.8-0.4,5.9-1.3,5.9-1.3s2.5-7.9,2.7-8.4
	c-0.1-0.2,4.9,2,4.9,2l-7.2-5.6l-1.8-1.2c2.9-6.7,6.6-12.9,11.2-18.4c1.9,0.6,3.4,1.1,3.4,1.1s5.7-5.9,6.2-6.3
	c0-0.3,3.5,4.1,3.5,4.1l-3.9-8.3c6.3-5.4,13.5-9.8,21.3-12.9c1.6,1.4,3,2.6,3,2.6s7.8-2.4,8.3-2.6c0.1-0.2,1.2,5.3,1.2,5.3l0.4-9
	c4.6-0.9,9.3-1.4,14.2-1.4c3.7,0,7.4,0.3,11,0.8c0.6,1.7,1.1,3.1,1.1,3.1s8,1.8,8.5,2c0.2-0.2-1.6,5.2-1.6,5.2l4.5-7.2
	c9.3,3.1,17.8,8.1,25.1,14.4c-0.5,2.1-0.9,3.9-0.9,3.9s5.7,5.9,6.1,6.4c0.3,0-4.1,3.5-4.1,3.5l8.2-3.8l0.2-0.1
	c4.9,6.2,8.9,13.1,11.8,20.7c-1.5,1.7-2.7,3.4-2.7,3.4s2.5,7.9,2.7,8.4c0.2,0.1-5.2,1.3-5.2,1.3l8.9,0.2c0.8,4.6,1.3,9.3,1.3,14.1
	c0,4-0.3,7.9-0.9,11.7c-1.8,0.7-3.3,1.3-3.3,1.3s-1.5,8.1-1.6,8.7c0.2,0.2-5.2-1.4-5.2-1.4l7,4.2c-2.1,6.3-5.1,12.3-8.7,17.8
	c-2.6-0.4-5.4-0.7-5.4-0.7s-5.1,6.5-5.5,6.9c0.1,0.3-3.9-3.7-3.9-3.7l4.7,7.8l0.8,1.1C574.3,437.4,567.6,442.3,560.1,446.1
	L560.1,446.1z M570.7,378.9c0-25.1-20-45.4-44.7-45.4c-24.7,0-44.7,20.3-44.7,45.4c0,25.1,20,45.4,44.7,45.4
	C550.7,424.3,570.7,404,570.7,378.9z M562.2,378.9c0-20.3-16.2-36.8-36.2-36.8s-36.2,16.5-36.2,36.8c0,20.3,16.2,36.8,36.2,36.8
	S562.2,399.2,562.2,378.9z M552.8,378.9c0-15.1-12-27.3-26.8-27.3c-14.8,0-26.8,12.2-26.8,27.3c0,15.1,12,27.3,26.8,27.3
	C540.8,406.1,552.8,393.9,552.8,378.9z"/>
</svg>
