<svg id="Layer_1" xmlns="http://www.w3.org/2000/svg" viewBox="0 0 1204 227"><style>.st0{display:none;fill:#4f5559}.st1{fill:#34383c;stroke:#34383c;stroke-width:6;stroke-miterlimit:10}.st2{fill:#349846}.st3{fill:#a7ca38}.st4{fill:#036cb2}.st5{fill:#fff}.st6{fill:#32383c}</style><path class="st0" d="M144.8 62.6l-97.5 54.8"/><path transform="rotate(-29.355 96.04 90.048)" class="st1" d="M40.1 86.8h111.8v6.4H40.1z"/><path class="st0" d="M134.7 182.3l-79.3-50.6"/><path transform="rotate(-57.446 95.069 156.955)" class="st1" d="M91.9 109.9h6.4V204h-6.4z"/><path class="st2" d="M2 122.3c0 22.3 18 40.3 40.3 40.3 22.3 0 40.3-18 40.3-40.3 0-22.3-18-40.3-40.3-40.3C20 82 2 100.1 2 122.3"/><path class="st3" d="M115.3 185.6c0 18.2 14.8 33 33 33s33-14.8 33-33-14.8-33-33-33-33 14.8-33 33"/><path class="st4" d="M102.9 57.5c0 28.8 23.3 52.1 52.1 52.1s52.1-23.3 52.1-52.1S183.8 5.3 155 5.3s-52.1 23.4-52.1 52.2"/><path class="st5" d="M171.5 175.8H168c-.5 0-.9.4-.9.9v.8l-.6.3c-.4-.9-1.6-3.6-2.1-4.8-.6-1.5-2.6-3.2-6.4-3.5 0 0-5.1-.6-9.8-.6s-9.7.6-9.8.6c-3.7.3-5.8 2-6.4 3.5-.5 1.2-1.7 3.9-2.1 4.8l-.6-.3v-.8c0-.5-.4-.9-.9-.9h-3.5c-.5 0-.9.4-.9.9v1.5c0 .5.4.9.9.9h4l.5.2c-2.9.3-4.8 1.7-4.8 3.5v18.4c0 .6.5 1.2 1.2 1.2h5.2c.6 0 1.2-.5 1.2-1.2v-3.4h31.9v3.4c0 .6.5 1.2 1.2 1.2h5.2c.6 0 1.2-.5 1.2-1.2v-18.4c0-1.8-1.9-3.2-4.8-3.5l.5-.2h4c.5 0 .9-.4.9-.9v-1.5c.1-.5-.3-.9-.8-.9zm-41.3 11.7c-3.9 0-4.3-.8-4.3-1.9 0-1.2 4.2-1.9 7.1-1.9l2.9 3.4c.1 0-3.1.4-5.7.4zm26.2.2h-16.3c-1.5 0-2.6-2.1-2.6-3 0-.5.4-.8 1-.8H158c.6 0 1 .3 1 .8 0 .9-1.1 3-2.6 3zm14.3-2.1c0 1.1-.4 1.9-4.3 1.9-2.7 0-5.8-.4-5.8-.4l2.9-3.4c3-.1 7.2.7 7.2 1.9zM65.4 110.2h-2.1c-.4 0-.8.3-.8.8v2.8c-.4-.1-1.1-.3-1.3-.8-.2-.6-.9-6.2-2.6-12.1-.3-1.2-.9-1.4-1.5-1.5 0 0-3.9-.4-14.8-.4-11 0-14.8.4-14.8.4-.6.1-1.2.3-1.5 1.5-1.7 5.8-2.5 11.5-2.6 12.1-.1.4-.9.7-1.3.8V111c0-.4-.3-.8-.8-.8h-2.1c-.4 0-.8.3-.8.8v5.4c0 .4.3.8.8.8h3.5s-1.2 8.4-1.2 12.3c0 .9.1 2.1.4 3.5v11.9c0 .6.4 1 1 1h3.7c.5 0 1-.5 1-1V141h29.7v3.9c0 .6.4 1 1 1H62c.5 0 1-.5 1-1v-12.2c.2-1.4.4-2.6.4-3.5 0-3.9-1.2-12.3-1.2-12.3h3.5c.4 0 .8-.3.8-.8v-5.4c-.4-.2-.7-.5-1.1-.5zm-41.1 19.4c-.8-.1-1.6-1-1.6-1.6v-3.8c0-.4.3-.5.8-.4.5.1 1.3.5 2 .9.7.3 1.2.5 1.5 1.3.4.8 2 4.1 2 4.1s-3.8-.4-4.7-.5zm29.9-3.1c-.3.9-.6 1.6-1.2 2.4 0 0-.3 1.9-10.7 1.9s-10.7-1.9-10.7-1.9c-.6-.8-.9-1.5-1.2-2.4-.3-.9-.3-1.5.6-1.6 0 0 5.2-.4 11.3-.4 6.1 0 11.3.4 11.3.4.9.1.9.6.6 1.6zm7.7-2.3v3.8c0 .7-.8 1.5-1.6 1.6-.9.1-4.7.5-4.7.5s1.6-3.3 2-4.1c.4-.8.8-1 1.5-1.3.7-.3 1.5-.7 2-.9.5-.1.8 0 .8.4zm62.7-75.3c.2 1 .8 1.2 1.6 1.1 1 .9 4.2 3.8 5.2 4 .6.1 1.1.1 1.5.1v3.6c0 2.2-1.7 3.4-3.7 5.4-2 2-1.5 5.9-1.5 5.9s-1 .5-1.2 2c-.2 1.5-.3 11 .5 14.6.3 1.2 1 2 1.9 2.7-.1 1-.4 3.8.8 4.1 2.2.5 6.2.6 7.9.2.6-.1.9-1.4 1-2.5 5.2 0 15.8-.1 16.5-.2.7 0 11.4.1 16.6.2.1 1.1.4 2.3 1 2.4 1.7.4 5.7.3 7.9-.2 1.2-.3.9-3.2.8-4.1.9-.6 1.6-1.5 1.8-2.6.8-3.7.7-13.2.5-14.6-.2-1.5-1.2-2-1.2-2s.5-3.9-1.5-5.9c-2-2-3.7-3.2-3.7-5.4v-3.6c.4 0 .9 0 1.4-.1 1-.2 4.2-3.1 5.2-4 .7.1 1.4-.2 1.6-1.1.5-2.5-.2-7.8-.6-8.2-.4-.4-3-1-3.3.2-.3 1.1-.1 8.2-.1 8.2s.7.5 1.5.8c-.9.6-2.6 1.8-3.4 2.3-.7.5-1.6.6-2.3.6-.1-4.9-.3-11.9-.5-15.6-.3-5.6-3.7-13.7-8.7-14.4-4.8-.6-12.5-.5-13-.5s-8.2-.1-13 .5c-5 .7-8.4 8.8-8.7 14.4-.2 3.8-.4 10.8-.5 15.6-.6 0-1.6-.1-2.3-.6-.9-.6-2.5-1.7-3.4-2.3.8-.3 1.5-.8 1.5-.8s.2-7.1-.1-8.2c-.3-1.1-2.9-.6-3.3-.2-.5.4-1.2 5.7-.7 8.2zm51.6 17.4c0-.2.2-.4.4-.4h3c.2 0 .4.2.4.4v2c0 .2-.2.4-.4.4h-3c-.2 0-.4-.2-.4-.4v-2zm-4.3 0c0-.2.2-.4.4-.4h3c.2 0 .4.2.4.4v2c0 .2-.2.4-.4.4h-3c-.2 0-.4-.2-.4-.4v-2zm-29.5-7.8c0-.4.4-.8.8-.8h23.6c.4 0 .8.4.8.8v18.1c0 .4-.4.8-.8.8h-23.6c-.4 0-.8-.4-.8-.8V58.5zm-8 7.8c0-.2.2-.4.4-.4h3c.2 0 .4.2.4.4v2c0 .2-.2.4-.4.4h-3c-.2 0-.4-.2-.4-.4v-2zm-1-.4c.2 0 .4.2.4.4v2c0 .2-.2.4-.4.4h-3c-.2 0-.4-.2-.4-.4v-2c0-.2.2-.4.4-.4h3z"/><path class="st6" d="M598 7v9C580.7 5.7 558.5 1.4 534.7 1.4c-63.6 0-101.8 35.1-108.3 89.2L399.5 7H290.2l-68 212.7h80.7l8.5-34.2h61l8.2 34.2h87.2l-5-15.4c17.4 13.5 41.2 21 71.5 21 26.5 0 51.3-6.5 69.5-20 18.3-13.8 30-35.1 30-64.2H555c-1.2 22.4-8.5 28.9-19.4 28.9-21.2 0-23-24.2-23-56.6 0-34.2 2.1-56.6 23.9-56.6 10.3 0 19.1 4.7 20.3 28.9H634c0-7.8-.8-14.9-2.1-21.5h18.6v155.5h84.2V64.1h52.4V7H598zM324.1 133.6l18.6-80.1h.6l16.8 80.1h-36z"/><path class="st6" d="M1132.5 81.7c-24.8 0-43 8.3-54.5 22.4-7.3-11.6-20.9-18.9-41-18.9H925.7L907 123.4l-17.5-38.2H754v134.4h129.8l20.7-40.6 19.9 40.6h87.7v-45.2h17.5c14.4 0 25.9-2.7 34.5-7.5 4.9 33.9 27.6 56.3 68.5 56.3 46.4 0 69.5-28.9 69.5-70.8-.1-41.9-23.2-70.7-69.6-70.7zM852.7 184.6H805v-15.1h47.3v-35H805v-14.3h50l19.1 30.7-21.4 33.7zm84.7-33.7l21.4-33.9v68l-21.4-34.1zm77.3-7.1h-2.6v-28.1h5.6c11.5 0 16 4.1 16 13.6s-5.2 14.5-19 14.5zm117.8 44.4c-8.2 0-14.3-4.7-14.3-35.8 0-30.4 5.8-35.8 14.3-35.8s14.3 5.4 14.3 35.8c.1 31.1-6.1 35.8-14.3 35.8z"/></svg>