<svg xmlns="http://www.w3.org/2000/svg" width="119.537" height="30.66" viewBox="0 0 119.537 30.66">
  <g id="Group_70" data-name="Group 70" transform="translate(-731 -943)">
    <g id="useicon-passenger02" transform="translate(731 943)">
      <path id="Path_13" data-name="Path 13" d="M119.829,79c0-1.3.052-2.6,0-3.894-.571-7.684-8.307-10.435-12.979-8.878a9.243,9.243,0,0,0-6.022,6.282,18.309,18.309,0,0,0-.831,6.9V80.87C81.878,80.662,63.967,80.507,46,80.3c0-1.038.052-1.921,0-2.855a18.711,18.711,0,0,0-1.558-7.32,8.2,8.2,0,0,0-3.478-3.894A19.08,19.08,0,0,0,30.74,63.841a5.957,5.957,0,0,0-5.555,4.153,12.066,12.066,0,0,0-.571,5.763c.1.727.208,1.506.311,2.44a9.83,9.83,0,0,1-1.973-.312c-2.388-.935-4.724-1.869-7.113-2.855a5.821,5.821,0,0,1-2.752-2.492,1.815,1.815,0,0,1-.1-1.921c1.35-.623,2.959,0,4.465-.415-.675-.779-1.246-1.454-1.817-2.18a3.018,3.018,0,0,1-.675-2.44,36.3,36.3,0,0,1,1.194-3.842A2.7,2.7,0,0,1,18.7,57.871c2.855-.26,5.659-.727,8.514-.986,5.97-.363,11.889-.935,17.859-1.4,6.8-.519,13.6-.986,20.455-1.454a106.006,106.006,0,0,1,14.641.156,29.073,29.073,0,0,1,7.009,1.142l19.936,6.542a8.594,8.594,0,0,0,1.09.312c1.194.312,2.44.467,3.634.883A116.549,116.549,0,0,1,130.161,70.9a3.619,3.619,0,0,1,2.129,3.53,15.922,15.922,0,0,1-1.09,5.451c-3.738.208-7.476.415-11.37.623C119.829,79.884,119.829,79.468,119.829,79ZM97.661,60.726C88.679,55.9,79.023,54.652,69,54.964c-.1,1.921-.208,3.738-.312,5.659,4.88.519,9.76.935,14.537,1.661,4.828.727,9.553,1.817,14.485,2.752C97.661,63.582,97.661,62.128,97.661,60.726Zm-42.52-1.3c0,.1.052.208.052.312,3.375.26,6.749.467,10.176.727.467-1.869.935-3.634,1.4-5.451C62.1,54.808,58.567,56.937,55.141,59.429Zm1.194,17.5L54.31,69.6c-1.3-.415-2.025.052-1.869,1.3a6.8,6.8,0,0,0,.311,1.4,21.205,21.205,0,0,0,2.44,5.14,14.723,14.723,0,0,0,.986,1.194A2.28,2.28,0,0,0,56.335,76.924Z" transform="translate(-12.752 -53.845)" fill="#fff"/>
      <path id="Path_14" data-name="Path 14" d="M47.485,77.5a9.19,9.19,0,1,1,.1,18.378,9.19,9.19,0,0,1-.1-18.378Zm.052,17.081A7.865,7.865,0,1,0,39.7,86.689,7.966,7.966,0,0,0,47.537,94.58Z" transform="translate(-25.084 -65.219)" fill="#fff"/>
      <path id="Path_15" data-name="Path 15" d="M191.922,78.7a8.875,8.875,0,0,1,8.982,8.93,8.965,8.965,0,0,1-8.93,8.774,8.852,8.852,0,0,1-.052-17.7Zm-7.372,8.878a7.424,7.424,0,0,0,7.528,7.476,7.5,7.5,0,1,0,0-15A7.436,7.436,0,0,0,184.55,87.577Z" transform="translate(-94.709 -65.796)" fill="#fff"/>
    </g>
  </g>
</svg>
