<svg xmlns="http://www.w3.org/2000/svg" width="73.606" height="45.843" viewBox="0 0 73.606 45.843">
  <g id="Group_69" data-name="Group 69" transform="translate(-774 -928)">
    <g id="useicon-motorsports" transform="translate(774 928)">
      <path id="Path_11" data-name="Path 11" d="M122.428,63.99c-.536-.245-1.062-.536-1.623-.74-1.113-.414-2.241-.776-3.39-1.174-.2-1.618-.4-3.221-.613-4.891-1.4-.255-2.813-.357-4.227-.551-.817.842-1.618,1.659-2.4,2.491a1.567,1.567,0,0,0-.265.511c-.715,1.828-1.475,3.645-2.124,5.493a33.881,33.881,0,0,0-.929,3.5c-.194.817-.322,1.644-.485,2.512H77.692c.026-.26.046-.49.066-.71-.807-.5-.817-.5-2.445-.311-.536-1.475-1.077-2.971-1.654-4.554-.756.72-1.465,1.394-2.2,2.093.107.429.209.842.322,1.276.107.041.225.082.378.138v1.777c-.087.056-.209.128-.393.245-.031.638-.516,1.251-.3,2.037-.276.444-.577.914-.873,1.394-.128-.026-.225-.046-.265-.051L69.1,75.717c.01.031.036.128.066.24-.475.317-.944.628-1.44.96-.123-.082-.245-.158-.373-.245-.531.158-1.062.322-1.634.5-.051.1-.117.225-.194.373h-1.8c-.061-.1-.128-.23-.22-.393-.485-.128-1.006-.26-1.521-.4-.117.087-.214.168-.352.276l-1.577-1c.051-.143.092-.24.128-.342-.408-.378-.817-.761-1.235-1.154q-.115.046-.291.123c-.306-.5-.618-.99-.944-1.521.071-.112.153-.23.235-.357-.133-.516-.265-1.036-.414-1.623-.077-.036-.209-.092-.388-.174v-1.8l.465-.189c.128-.516.25-1.036.408-1.68-1.3-2.736-2.655-5.57-4.013-8.429H51.564a5.234,5.234,0,0,1,.015-1.695.7.7,0,0,1,.235-.368.852.852,0,0,0,.291-.689c-.01-1.537-.005-3.073-.01-4.61,0-.087-.02-.168-.031-.271-.23-.22-.47-.439-.715-.674V49.359c.026-.02.041-.031.061-.046s.036-.036.051-.036a1.242,1.242,0,0,1,.194-.015l25.8-.015a.737.737,0,0,0,.128-.036c.3-.638.618-1.312.939-2,.342-.015.659-.031,1.041-.046-.347-4.416-.689-8.806-1.036-13.227.73-.613,1.435-1.251,2.2-1.817a2.876,2.876,0,0,1,1.868-.414c2.359.071,4.717.174,7.076.26,1.21.046,2.425.1,3.635.138,1.577.056,3.16.123,4.738.158a5.794,5.794,0,0,1,5.641,3.905c.465,1.159.96,2.313,1.475,3.451q2.489,5.483,5,10.961c.087.194.189.383.291.587q3.27,1.072,6.529,2.139c1.271.419,2.537.847,3.819,1.246a1.345,1.345,0,0,1,.771.546c.046.071.1.138.153.209a2.735,2.735,0,0,1,.847,2.282c.036.715.087,1.424.123,2.139a7.961,7.961,0,0,1,.015,1.1,10.892,10.892,0,0,1-.214,1.133l1.047.25c-.036-.434-.066-.8-.1-1.23.235.087.444.158.648.245.22.092.434.194.618.281.618,1.848.02,3.5-.761,5.141A3.088,3.088,0,0,1,122.428,63.99Zm-23.295-11.2c-.225-.128-.414-.235-.643-.368.163-.271.271-.48.408-.674,1.241-1.766,2.491-3.533,3.737-5.3a1.58,1.58,0,0,1,.117-.158.461.461,0,0,1,.715-.071c.031.955-.812,1.45-1.22,2.185.75.853,1.5,1.705,2.282,2.593a2.1,2.1,0,0,1,1.965-.567c.235.031.47.066.71.082.357.026.72.041,1.164.061-.123-.317-.2-.536-.3-.75-.75-1.812-1.486-3.635-2.262-5.437-1.118-2.593-2.272-5.177-3.4-7.765a4.412,4.412,0,0,0-2.108-2.205,12.947,12.947,0,0,0-1.358-.608,2.623,2.623,0,0,0-.822-.143c-1.925-.061-3.849-.1-5.779-.163-1.817-.056-3.635-.133-5.452-.2-1.557-.051-3.114-.1-4.671-.143a1.135,1.135,0,0,0-.618.107c-.648.424-1.276.888-1.94,1.358.373,4.135.745,8.26,1.123,12.41.388.041.73.1,1.072.107a.818.818,0,0,0,.48-.128c1.332-.909,3.788.051,4.462,1.368a5.462,5.462,0,0,1,.3.914c.041.143.036.3.082.444.4,1.2.812,2.4,1.2,3.614a1.977,1.977,0,0,0,1.1,1.348c.036.015.051.066.1.128-.117.618-.235,1.266-.373,2,1.286-.087,2.491-.174,3.7-.24.776-.041,1.557-.051,2.333-.061a1.994,1.994,0,0,1,.567.112.811.811,0,0,1,.653.853c-.005.357-.031.715-.046,1.072a.975.975,0,0,0,.9-.22c1.067-.74,2.144-1.46,3.2-2.18.424.077.822.153,1.23.225q.888-1.907,1.715-3.686a3.654,3.654,0,0,0-1.052-1.833c-.2.148-.393.286-.592.434l-.679-.4a4.487,4.487,0,0,0-.776.5C99.945,51.835,99.578,52.289,99.134,52.795ZM64.685,73.154a3.025,3.025,0,0,0-.031-6.05,3.082,3.082,0,0,0-3.027,3.155A2.986,2.986,0,0,0,64.685,73.154Zm3.3-11.548q1.317-1.348,2.629-2.7c.01-.01.005-.041-.005-.061s-.026-.026-.036-.041c-3.3-.128-10.751-.061-11.287.107q.75,1.363,1.475,2.69Z" transform="translate(-51.35 -31.701)" fill="#fff"/>
      <path id="Path_12" data-name="Path 12" d="M178.643,100.554c-.189.071-.3.112-.4.153-.143.536-.276,1.057-.419,1.593.066.1.133.2.22.342-.291.465-.587.939-.9,1.45-.1-.01-.189-.026-.311-.041-.357.393-.735.807-1.174,1.281-.01-.036.015.061.056.189-.475.317-.955.638-1.455.97-.153-.092-.291-.174-.4-.24-.434.128-.817.276-1.22.357-.311.061-.516.189-.572.505h-1.817l-.184-.383c-.434-.117-.863-.26-1.307-.347a.8.8,0,0,0-.587.214c-.51-.317-1.016-.633-1.537-.955.015-.163.031-.306.041-.419-.4-.368-.776-.72-1.169-1.087-.1.02-.22.041-.337.066-.311-.505-.618-1-.924-1.491.47-.715-.209-1.3-.128-1.965-.174-.077-.3-.133-.444-.194v-1.8c.148-.056.3-.117.454-.184.128-.516.26-1.036.408-1.618-.082-.1-.2-.245-.332-.4.316-.5.628-1,.955-1.511.138.046.25.087.414.138.327-.378.674-.786,1.021-1.195a.917.917,0,0,1,.1.1c-.036-.123-.077-.245-.117-.388.49-.306.985-.618,1.521-.955.1.087.2.179.337.291.531-.153,1.087-.317,1.669-.485.031-.123.061-.26.1-.434h1.858c.056.332.306.434.623.5.378.082.74.23,1.138.352.112-.087.245-.184.424-.317.48.291.955.582,1.47.893-.036.138-.077.271-.112.414.368.388.735.781,1.123,1.189.153-.02.316-.041.475-.066.322.521.628,1.016.944,1.526-.077.107-.143.209-.25.368.368.521.255,1.256.689,1.8a.442.442,0,0,1,.051.25C178.648,99.523,178.643,100.018,178.643,100.554Zm-10.46-.807a2.916,2.916,0,0,0,3.017,2.971,3.017,3.017,0,1,0-3.017-2.971Z" transform="translate(-106.33 -61.271)" fill="#fff"/>
    </g>
  </g>
</svg>
