<svg xmlns="http://www.w3.org/2000/svg" width="124.253" height="48.84" viewBox="0 0 124.253 48.84">
  <g id="Group_71" data-name="Group 71" transform="translate(-738 -930)">
    <g id="useicon-sprinter" transform="translate(738 930)">
      <path id="Path_16" data-name="Path 16" d="M205.641,98.2a6.013,6.013,0,1,1,.173,12.025c-3.682,0-6.214-2.416-6.214-5.926A5.847,5.847,0,0,1,205.641,98.2Zm-3.049,6.214c0,1.668,1.093,2.877,3.164,2.992a3.139,3.139,0,1,0-.23-6.271C204.145,100.962,202.649,102.285,202.592,104.414Z" transform="translate(-96.878 -61.493)" fill="#fff"/>
      <path id="Path_17" data-name="Path 17" d="M71.074,105.132a6.06,6.06,0,0,1-10.3,3.279,5.814,5.814,0,0,1-1.784-4.373,6.266,6.266,0,0,1,.288-1.5A5.607,5.607,0,0,1,64.975,98,6.137,6.137,0,0,1,71.074,105.132Zm-5.926,2.186a3.047,3.047,0,0,0,2.992-3.279,3.109,3.109,0,1,0-6.214.23C61.869,105.65,62.847,107.2,65.148,107.319Z" transform="translate(-37.163 -61.406)" fill="#fff"/>
      <path id="Path_18" data-name="Path 18" d="M144.666,66.849c1.151,2.244.518,4.545,0,6.731a4.043,4.043,0,0,1-1.956,2.3,13.368,13.368,0,0,1-5.868,1.668,7.232,7.232,0,0,0-2.819-5.984,6.672,6.672,0,0,0-4.6-1.323c-3.567.173-5.753,2.589-6.616,7.307H56.063a7.2,7.2,0,0,0-3.049-6.1,6.735,6.735,0,0,0-4.545-1.208c-3.567.23-5.638,2.589-6.5,7.307-.4,0-.805.058-1.208.058H24.592c-2.416,0-3.51-1.093-3.51-3.51,0-1.266-.23-2.647.748-3.682a69.8,69.8,0,0,1,0-17.663q.777-7.077,1.726-14.153a4.5,4.5,0,0,1,4.6-4.2H101.17a19.176,19.176,0,0,1,5.408.748,11.623,11.623,0,0,1,4.488,2.531c5.466,4.948,10.931,9.838,16.4,14.729a9.548,9.548,0,0,0,1.841,1.266c4.142,2.014,8.227,3.97,12.427,5.868,2.359,1.036,3.395,2.7,3.164,5.638a7.05,7.05,0,0,1-.115,1.093A4.818,4.818,0,0,1,144.666,66.849Zm-17.836-10.7c0-.805-.575-1.208-1.036-1.611-4.085-3.682-8.112-7.307-12.2-10.989a3.914,3.914,0,0,0-2.647-1.208c-2.647-.058-5.236-.115-7.882-.115-1.151,0-1.611.575-1.438,1.726a29.454,29.454,0,0,0,3.049,9.723,2.385,2.385,0,0,0,2.244,1.438c1.553.115,3.107.173,4.6.288,4.142.288,8.342.518,12.485.805C124.932,56.205,125.852,56.148,126.83,56.148Z" transform="translate(-21.059 -34.4)" fill="#fff"/>
    </g>
  </g>
</svg>
