<svg xmlns="http://www.w3.org/2000/svg" width="155.926" height="53.586" viewBox="0 0 155.926 53.586">
  <g id="Group_72" data-name="Group 72" transform="translate(-376 -949)">
    <path id="useicon-truck" d="M123.537,88.987a7.317,7.317,0,0,1-13.408-.034h-5.715v-8.9h4.068V77.939H93.991V84.28h-5.85c-.121-.208-.249-.437-.39-.686H83.6a2.382,2.382,0,0,1-1.97.746q-8.775-.03-17.557-.007a2.514,2.514,0,0,1-2.078-.74H58.118c-.067.242-.128.464-.2.733H50a7.232,7.232,0,0,1-2.071,7.08,6.94,6.94,0,0,1-5.715,1.91c-3.6-.35-7.188-3.786-6.213-9H32.667a7.457,7.457,0,0,0,.007.955,7.159,7.159,0,1,1-14.248,1.3V84.388H14.237c-.43-1.2-.847-2.347-1.257-3.5a12.165,12.165,0,0,1-1.069-6.153V39.975c.814-.208,122.951-.276,124.537-.074V77.852c-.948.007-1.916.02-2.891.027-1.022.007-2.044,0-3.066,0h-5.958v2.1h16.689l.888-1.331c-.047-.108-.061-.195-.108-.229a3.8,3.8,0,0,1-1.486-3.611c.188-3.093.282-6.186.417-9.286q.111-2.693.215-5.379c.087-2.427.148-4.862.256-7.289.094-2.219.242-4.431.343-6.65.054-1.089.054-2.185.087-3.275.007-.276.047-.551.081-.881a8.05,8.05,0,0,1,2.629-.061c1.715.148,3.436.3,5.131.6a26.221,26.221,0,0,1,3.947,1.089,5.445,5.445,0,0,1,2.515,1.694,2.341,2.341,0,0,0,1.325.78c1.668.424,3.315.9,4.989,1.264a4.983,4.983,0,0,1,3.281,2.448,9.512,9.512,0,0,1,1.5,5.191,6.912,6.912,0,0,0,.007,1.056A3.3,3.3,0,0,1,165.65,59.6c.121,1.257.235,2.508.363,3.766.1,1.015.249,2.024.323,3.039a1.8,1.8,0,0,0,.538,1.318,3.093,3.093,0,0,1,.962,2.461c-.034,5.043-.013,10.079-.02,15.123a5.387,5.387,0,0,1-.161,1.352,2.755,2.755,0,0,1-2.71,2.232c-2.078.074-4.156.047-6.24.061h-1.123a7.362,7.362,0,0,1-13.475.04Zm29.3-33.9c-.027.309-.067.578-.067.854q-.01,3.167,0,6.334c0,1.17.2,1.4,1.311,1.668,2.555.605,5.1,1.224,7.659,1.829a7.656,7.656,0,0,0,1.446.249.989.989,0,0,0,1.163-1.2c-.242-2.232-.4-4.478-.545-6.717-.094-1.432-.6-2.051-2-2.212-.975-.114-1.957-.175-2.938-.262C156.882,55.44,154.892,55.266,152.841,55.084Zm2.071,31.072a4.124,4.124,0,0,0-4.182-4.088,4.18,4.18,0,0,0-4.068,4.122,4.125,4.125,0,1,0,8.25-.034ZM25.553,82.095a4.113,4.113,0,0,0-4.142,4.034,4.139,4.139,0,1,0,8.277.1A4.118,4.118,0,0,0,25.553,82.095ZM47.144,86.23a4.118,4.118,0,0,0-4.034-4.149,4.126,4.126,0,1,0-.175,8.25A4.115,4.115,0,0,0,47.144,86.23Zm65.6-.188a4.047,4.047,0,0,0,3.974,4.29,4.125,4.125,0,1,0,.309-8.244A4.037,4.037,0,0,0,112.745,86.042ZM150.709,62.87c.047-2.669.027-5.2.007-7.807-1.466,0-2.8-.027-4.129.013a1.131,1.131,0,0,0-1.251,1.251c-.027,1.2-.02,2.387.04,3.584a1.847,1.847,0,0,0,1.439,1.836C148.06,62.084,149.3,62.46,150.709,62.87Zm-62.783,15.1c-2.158-.222-29.626-.141-29.922.128.027.249.054.545.094.874,1.069,0,2.058-.007,3.039,0a2.036,2.036,0,0,0,1.473-.39,1.9,1.9,0,0,1,1.1-.249q9.1-.02,18.189,0a1.741,1.741,0,0,1,1,.215,2.666,2.666,0,0,0,1.789.424c.914-.013,1.836,0,2.75-.013a2.12,2.12,0,0,0,.424-.081C87.893,78.585,87.906,78.3,87.926,77.966ZM83.865,82.29h3.981V80.259H83.865ZM61.756,82.3V80.286H58.091V82.3Z" transform="translate(364.09 909.22)" fill="#fff"/>
  </g>
</svg>
