<svg xmlns="http://www.w3.org/2000/svg" width="156.449" height="48.84" viewBox="0 0 156.449 48.84">
  <g id="Group_68" data-name="Group 68" transform="translate(-738 -939)">
    <g id="useicon-bus" transform="translate(738 939)">
      <path id="Path_7" data-name="Path 7" d="M191.371,106.279a6.74,6.74,0,1,1,6.823-6.685A6.722,6.722,0,0,1,191.371,106.279Zm-.058-3.527a3.214,3.214,0,1,0-3.078-3.368A3.239,3.239,0,0,0,191.313,102.752Z" transform="translate(-65.104 -57.44)" fill="#fff"/>
      <path id="Path_8" data-name="Path 8" d="M84.971,106.279a6.74,6.74,0,1,1,6.823-6.685A6.722,6.722,0,0,1,84.971,106.279Zm-.058-3.527a3.214,3.214,0,1,0-3.078-3.368A3.239,3.239,0,0,0,84.913,102.752Z" transform="translate(-35.77 -57.44)" fill="#fff"/>
      <path id="Path_9" data-name="Path 9" d="M56.941,106.279a6.74,6.74,0,1,1,6.823-6.685A6.722,6.722,0,0,1,56.941,106.279Zm-.051-3.527a3.214,3.214,0,1,0-3.078-3.368A3.239,3.239,0,0,0,56.891,102.752Z" transform="translate(-28.042 -57.44)" fill="#fff"/>
      <path id="Path_10" data-name="Path 10" d="M48.427,48.731A4.014,4.014,0,0,1,51.194,44.8a10.208,10.208,0,0,0,1.369-.818h3.194c.087.225.159.406.239.608.188.007.355.022.522.022,5.736,0,11.473.007,17.217-.007a4.727,4.727,0,0,1,1.883.377c1.753.732,3.542,1.405,5.324,2.072a4.568,4.568,0,0,0,1.289.246c.616.043,1.239.022,1.854.022q44.371,0,88.749-.022a4.067,4.067,0,0,1,3.216,1.152v4.092c-.167.181-.369.406-.579.637v19.94c-.2.167-.4.34-.616.521a1.209,1.209,0,0,0-.043.282c.072,1.036-.261,2.129.377,3.1a.821.821,0,0,1,.036.406v3.31c-.2.246-.391.478-.594.724v3.332c-.21.159-.485.362-.818.6-2.043.145-4.158.29-6.272.442-1.673.123-3.339.253-5,.406-2.043.188-4.078.413-6.128.579-.811.065-1.63.007-2.564.007a7.735,7.735,0,0,0-2.962-6.852,7.587,7.587,0,0,0-5.121-1.724,7.895,7.895,0,0,0-7.634,8.706c-20.476.1-40.872.029-61.392.087a8.25,8.25,0,0,0-3.368-7.315,7.271,7.271,0,0,0-4.693-1.478c-3.716.145-7.743,2.629-7.946,8.728a3.144,3.144,0,0,1-.377.051c-1.231.007-2.47,0-3.824,0a8.227,8.227,0,0,0-3.361-7.3,7.293,7.293,0,0,0-4.8-1.478c-3.788.21-7.656,2.745-7.83,8.721-1.63-.08-3.259-.152-4.889-.239-.311-.014-.616-.065-.92-.08-1.333-.072-2.673-.145-4.005-.2-2.195-.087-4.389-.138-6.584-.232-.92-.043-1.84-.152-2.832-.239-.022-.261-.065-.521-.065-.782-.007-.826,0-1.651,0-2.47a11.293,11.293,0,0,0-.384-3.433,18.471,18.471,0,0,1-.659-4.643c-.08-1.572-.239-3.136-.362-4.708a3.954,3.954,0,0,1-.029-.413q-.109-9.735-.2-19.469a3.4,3.4,0,0,1,.225-1.2,2.166,2.166,0,0,1,3.028-1.217.54.54,0,0,1,.181.094,6.159,6.159,0,0,0,4.063,1c6.7-.051,13.4-.022,20.1-.022Zm50.3,6.388c-2.818,0-5.628-.007-8.445,0-1.246,0-1.825.579-1.825,1.8q-.011,5.508,0,11.017a1.59,1.59,0,0,0,1.8,1.825c5.628.007,11.256-.007,16.891.014A1.827,1.827,0,0,0,109.1,67.8c-.051-3.571-.014-7.142-.022-10.705,0-1.405-.579-1.963-2.006-1.963C104.293,55.113,101.511,55.12,98.73,55.12Zm11.77,1.043c0,3.969-.007,7.953,0,11.937a1.573,1.573,0,0,0,1.572,1.659c.138.007.275,0,.413,0,5.534,0,11.06-.029,16.594.022a1.876,1.876,0,0,0,2.05-2.1c-.058-.855-.072-1.709-.072-2.564,0-2.68.022-5.353.036-8.033a1.772,1.772,0,0,0-2.021-1.985c-5.534.043-11.06.029-16.594.007A2.077,2.077,0,0,0,110.5,56.163Zm-42.451.007c0,4.02-.007,8.069.007,12.118a1.5,1.5,0,0,0,1.325,1.456,6.263,6.263,0,0,0,.826.014H82.882c.724,0,1.441.014,2.166-.007a1.63,1.63,0,0,0,1.717-1.543,6.175,6.175,0,0,0,.014-.818Q86.736,62.2,86.685,57a3.938,3.938,0,0,0-.058-.717,1.318,1.318,0,0,0-1.246-1.152,5.819,5.819,0,0,0-.616-.007c-4.911,0-9.822.022-14.732-.022A2.037,2.037,0,0,0,68.049,56.17Zm75.682-1.05c-2.47,0-4.947-.007-7.417,0-1.21,0-1.68.456-1.68,1.659q-.011,5.66-.007,11.328c0,1.115.522,1.651,1.615,1.651q7.42.011,14.841,0a1.536,1.536,0,0,0,1.7-1.724q.011-5.563,0-11.125c-.007-1.239-.587-1.789-1.84-1.789C148.54,55.113,146.136,55.12,143.731,55.12ZM58.162,69.758c2.368,0,4.737.007,7.105,0a1.552,1.552,0,0,0,1.76-1.767q.011-5.563,0-11.125a1.553,1.553,0,0,0-1.775-1.746q-7.16-.011-14.319,0c-1.224,0-1.782.5-1.789,1.724q-.054,5.563-.029,11.118c.007,1.26.594,1.8,1.84,1.8C53.352,69.765,55.757,69.758,58.162,69.758Zm113.969,2.716V58.582c0-.311.022-.623-.007-.927a7.158,7.158,0,0,0-.2-1.311,2.063,2.063,0,0,0-2.057-1.224c-4.15-.007-8.308,0-12.458,0a2.549,2.549,0,0,0-.369.036,2.023,2.023,0,0,0-.963,1.753c0,3.774-.007,7.554.007,11.328a1.561,1.561,0,0,0,1.5,1.731c2.006.362,4.013.688,6.019,1.043,2.137.377,4.273.782,6.41,1.159C170.675,72.286,171.341,72.358,172.131,72.474ZM47.015,55.12H32.478c-1.2,0-1.738.536-1.746,1.746q-.011,5.563,0,11.133a1.537,1.537,0,0,0,1.753,1.76q6.856.011,13.711,0c1.3,0,1.861-.565,1.861-1.869,0-3.607-.022-7.214.014-10.821A2.034,2.034,0,0,0,47.015,55.12ZM27.336,77.139c.036-.413.1-.768.1-1.13q.011-4.987.007-9.981,0-6.171-.007-12.349a11.545,11.545,0,0,0-.116-1.188H22.6a11.044,11.044,0,0,0-.109,1.123c-.014,1.543-.007,3.086-.007,4.628q0,8.844.007,17.695a11.953,11.953,0,0,0,.123,1.2C24.236,77.139,25.728,77.139,27.336,77.139ZM146.462,49.188V53.62a47.706,47.706,0,0,0,7.707-.1V49.188Zm7.33,25.387c-.145-.087-.261-.21-.377-.21-.884-.022-1.767-.058-2.651,0-.239.014-.464.3-.775.536.282.2.435.4.594.406.92.029,1.847.029,2.774.014C153.748,75.306,153.849,75.024,153.792,74.575Zm13.226,7.786c-.761-.934-1.557-.92-2.245.007.1.572.5.739,1.036.746S166.829,83.049,167.017,82.361Z" transform="translate(-19.6 -43.98)" fill="#fff"/>
    </g>
  </g>
</svg>
