<?xml version="1.0" encoding="utf-8"?>
<!-- Generator: Adobe Illustrator 26.0.2, SVG Export Plug-In . SVG Version: 6.00 Build 0)  -->
<svg version="1.1" id="Layer_1" xmlns="http://www.w3.org/2000/svg" xmlns:xlink="http://www.w3.org/1999/xlink" x="0px" y="0px"
	 viewBox="0 0 24 24" style="enable-background:new 0 0 24 24;" xml:space="preserve">
<style type="text/css">
	.st0{fill:#FFFFFF;}
</style>
<g id="high_audio">
	<path class="st0" d="M11.5,3c-1,0-1,0.1-6.8,4H1C0.4,7,0,7.4,0,8v8c0,0.6,0.4,1,1,1h3.7l5.4,3.6c1.2,0.8,2.7,0.5,3.5-0.7
		c0.3-0.4,0.4-0.9,0.4-1.4V5.5C14,4.1,12.9,3,11.5,3L11.5,3z M2,9h2v6H2V9z M12,18.5c0,0.3-0.3,0.5-0.6,0.5c-0.1,0-0.2,0-0.3-0.1
		L6,15.5V8.5l5.2-3.4c0.3-0.2,0.6-0.1,0.8,0.2C12,5.4,12,5.4,12,5.5V18.5z"/>
	<path class="st0" d="M16.8,9.2c-0.4-0.4-1-0.4-1.4,0s-0.4,1,0,1.4c0.8,0.8,0.8,2,0,2.8c-0.4,0.4-0.4,1,0,1.4
		c0.2,0.2,0.4,0.3,0.7,0.3C17.5,15.1,19.2,11.5,16.8,9.2z"/>
	<path class="st0" d="M19,7.1c-0.4-0.4-1.1-0.3-1.4,0.1c-0.3,0.4-0.3,0.9,0,1.3c2,2,2,5.1,0,7.1c0,0,0,0,0,0c-0.4,0.4-0.4,1,0,1.4
		c0.2,0.2,0.4,0.3,0.7,0.3C19.9,17.2,23.1,11.2,19,7.1z"/>
	<path class="st0" d="M21.1,4.9C20.7,4.6,20,4.6,19.7,5c-0.3,0.4-0.3,0.9,0,1.3c3.1,3.1,3.1,8.2,0,11.3c0,0,0,0,0,0
		c-0.4,0.4-0.3,1.1,0.1,1.4c0.4,0.3,0.9,0.3,1.3,0C25,15.2,25,8.8,21.1,4.9z"/>
</g>
</svg>
