<?xml version="1.0" encoding="utf-8"?>
<!-- Generator: Adobe Illustrator 26.0.2, SVG Export Plug-In . SVG Version: 6.00 Build 0)  -->
<svg version="1.1" id="Layer_1" xmlns="http://www.w3.org/2000/svg" xmlns:xlink="http://www.w3.org/1999/xlink" x="0px" y="0px"
	 viewBox="0 0 24 24" style="enable-background:new 0 0 24 24;" xml:space="preserve">
<style type="text/css">
	.st0{fill:#FFFFFF;}
</style>
<g id="mute">
	<path class="st0" d="M21.3,1.3l-3.4,3.4c-0.4-1.3-1.9-2-3.2-1.6c-0.2,0.1-0.4,0.2-0.6,0.3L8.7,7H5C4.4,7,4,7.4,4,8v8
		c0,0.6,0.4,1,1,1h0.6l-4.3,4.3c-0.4,0.4-0.4,1,0,1.4s1,0.4,1.4,0c6.3-6.4,5.6-5.7,6-5.7c5.7,3.8,5.7,4,6.8,4c1.4,0,2.5-1.1,2.5-2.5
		c0,0,0,0,0,0v-11l4.7-4.7c0.4-0.4,0.4-1,0-1.4C22.3,0.9,21.7,0.9,21.3,1.3z M15.2,5.1c0.3-0.2,0.6-0.1,0.8,0.2
		C16,5.4,16,5.4,16,5.5v1l-6,6v-4L15.2,5.1z M6,15V9h2C8,15.8,8.5,15,6,15z M16,18.5c0,0.3-0.3,0.5-0.6,0.5c-0.1,0-0.2,0-0.3-0.1
		L10,15.5c0-0.1-0.5,0.4,6-6.1V18.5z"/>
</g>
</svg>
