<svg id="Layer_1" data-name="Layer 1" xmlns="http://www.w3.org/2000/svg" viewBox="0 0 792 612"><defs><style>.cls-1{fill:#507a38;}.cls-2{fill:#595a5a;}</style></defs><path class="cls-1" d="M327.08,491.65c5,0,8.49,3.36,8.49,7.61s-3.53,7.6-8.49,7.6h-4.24v9.38l-.18.17h-3.18l-.18-.17V491.83l.14-.18Zm-4.24,11.68h4.24a4.08,4.08,0,1,0,0-8.14h-4.24Z"/><path class="cls-1" d="M371.65,504a13.09,13.09,0,1,1-13.09-12.91A13,13,0,0,1,371.65,504Zm-22.11,0a9,9,0,1,0,9-9.19A9.09,9.09,0,0,0,349.54,504Z"/><path class="cls-1" d="M391.89,492.12h3.64l3,8.28,3-8.28h3.61L401,503l3.65,9L412.23,492h4.23l-10.07,24.39h-3.3l-4.53-10.92L394,516.41h-3.3L380.62,492h4.19L392.44,512l3.64-9Z"/><path class="cls-1" d="M441.33,491.65l.18.18V495l-.18.18h-11.5V501h8.67l.18.17v3.19l-.18.17h-8.67v8.32h12.56l.18.17v3.19l-.18.17H426.47l-.17-.17V491.83l.17-.18Z"/><path class="cls-1" d="M461,491.65c5,0,8.14,3,8.14,7.08a6.7,6.7,0,0,1-4.25,6.36L473,516.24l-.18.17h-4.24l-.18-.17L460.6,505.8h-3.18v10.44l-.18.17h-3.18l-.18-.17V491.83l.18-.18Zm-3.53,10.61H461c2.66,0,4.07-1.41,4.07-3.53s-1.41-3.54-4.07-3.54h-3.53Z"/><path class="cls-2" d="M228.73,400.19c12,0,19.7,7.28,19.7,17.13a16.26,16.26,0,0,1-10.28,15.41l19.7,27-.43.43H247.14l-.42-.43-18.84-25.26h-7.71v25.26l-.43.43H212l-.42-.43V400.62l.42-.43Zm-8.56,25.69h8.56c6.43,0,9.85-3.42,9.85-8.56s-3.42-8.56-9.85-8.56h-8.56Z"/><path class="cls-2" d="M339.2,430.16a31.69,31.69,0,1,1-31.69-31.25C325,398.91,339.2,413,339.2,430.16Zm-53.52,0a21.84,21.84,0,1,0,21.83-22.26A22,22,0,0,0,285.68,430.16Z"/><path class="cls-2" d="M375.16,400.19l.86.43,21.41,26.12,21.4-26.12.86-.43H427l.43.43v59.09l-.43.43h-7.71l-.43-.43V413l-21,25.69H397L376,413v46.67l-.43.43h-7.71l-.42-.43V400.62l.42-.43Z"/><path class="cls-2" d="M494.62,400.19l.43.43v7.71l-.43.43H466.79v14.13h21l.42.42V431l-.42.43h-21v20.12h30.4l.42.43v7.71l-.42.43H458.65l-.43-.43V400.62l.43-.43Z"/><path class="cls-2" d="M580.68,430.16A31.69,31.69,0,1,1,549,398.91C566.46,398.91,580.68,413,580.68,430.16Zm-53.53,0A21.84,21.84,0,1,0,549,407.9,22,22,0,0,0,527.15,430.16Z"/><path class="cls-1" d="M304.75,301.08a113.49,113.49,0,0,1-28.37-37.48c-.42-.91-.77-1.84-1.11-2.79s-.55-1.92-.84-2.88-.55-1.92-.86-2.87-.52-1.93-.79-2.89l-.76-2.9c-.24-1-.43-2-.65-2.93l-.63-2.93-.5-2.95a128.06,128.06,0,0,1-1.72-23.87A126.8,126.8,0,0,1,437.74,99.94a115.42,115.42,0,0,1,37.9,27.78A129.54,129.54,0,0,0,434.5,109,116.94,116.94,0,0,0,278.18,216.8a115.43,115.43,0,0,0,7.34,43.39A131.7,131.7,0,0,0,304.75,301.08Z"/><path class="cls-1" d="M315.81,309.14a131.92,131.92,0,0,0,40.89,19.23,115.43,115.43,0,0,0,43.39,7.34A117.13,117.13,0,0,0,507.85,179.39a129.54,129.54,0,0,0-18.68-41.14A115.14,115.14,0,0,1,517,176.15a126.81,126.81,0,0,1-140.51,167.5l-3-.5-2.93-.63c-1-.22-1.95-.41-2.93-.65l-2.89-.76c-1-.27-1.94-.5-2.9-.79s-1.91-.57-2.87-.86-1.94-.5-2.88-.84-1.88-.69-2.79-1.11A113.46,113.46,0,0,1,315.81,309.14Z"/><path class="cls-1" d="M322.93,284.8a90.87,90.87,0,0,1-22.74-30,102.71,102.71,0,0,1-6.3-37.69,101.65,101.65,0,0,1,135.64-93.51,92.39,92.39,0,0,1,30.38,22.27,103.69,103.69,0,0,0-33-15,93.72,93.72,0,0,0-125.3,86.38A92.46,92.46,0,0,0,307.52,252,105.33,105.33,0,0,0,322.93,284.8Z"/><path class="cls-1" d="M331.8,291.26a105.84,105.84,0,0,0,32.77,15.41,92.51,92.51,0,0,0,34.79,5.89,93.9,93.9,0,0,0,86.38-125.3,103.93,103.93,0,0,0-15-33A92.28,92.28,0,0,1,493,184.66,101.47,101.47,0,0,1,399.52,320.3a102.83,102.83,0,0,1-37.68-6.3A90.87,90.87,0,0,1,331.8,291.26Z"/><path class="cls-1" d="M337.38,271.86a73,73,0,0,1-18.27-24.14,82.63,82.63,0,0,1-5.06-30.26,81.64,81.64,0,0,1,109-75.12,74.19,74.19,0,0,1,24.4,17.89,83.41,83.41,0,0,0-26.49-12,75.29,75.29,0,0,0-100.65,69.39A74.35,74.35,0,0,0,325,245.53,84.9,84.9,0,0,0,337.38,271.86Z"/><path class="cls-1" d="M344.5,277.05a85,85,0,0,0,26.33,12.38,74.15,74.15,0,0,0,27.94,4.72A75.42,75.42,0,0,0,468.16,193.5a83.51,83.51,0,0,0-12-26.49A74.4,74.4,0,0,1,474,191.41a81.7,81.7,0,0,1-105.38,103.9A73,73,0,0,1,344.5,277.05Z"/><path class="cls-1" d="M347.59,262.71a60.32,60.32,0,0,1-15.1-20,68.24,68.24,0,0,1-4.19-25,67.49,67.49,0,0,1,90.1-62.11,61.32,61.32,0,0,1,20.18,14.79,68.87,68.87,0,0,0-21.91-9.95,62.26,62.26,0,0,0-83.22,57.38,61.25,61.25,0,0,0,3.91,23.1A70.16,70.16,0,0,0,347.59,262.71Z"/><path class="cls-1" d="M353.48,267a70.3,70.3,0,0,0,21.77,10.24,62.54,62.54,0,0,0,46-1,62.42,62.42,0,0,0,34.45-78.36A69.16,69.16,0,0,0,445.79,176a61.6,61.6,0,0,1,14.79,20.18,67.41,67.41,0,0,1-62.11,90.1,68.46,68.46,0,0,1-25-4.18A60.48,60.48,0,0,1,353.48,267Z"/><path class="cls-1" d="M358.39,253a46.76,46.76,0,0,1-11.76-15.54A52.47,52.47,0,0,1,394,166.69a51.09,51.09,0,0,1,19.52,2.95,47.82,47.82,0,0,1,15.71,11.52,53.77,53.77,0,0,0-17.05-7.74,47,47,0,0,0-18-2.73,48.22,48.22,0,0,0-32.82,14.39,48.79,48.79,0,0,0-10.17,15.17,48.24,48.24,0,0,0-3.76,17.85,47,47,0,0,0,3,18A54.46,54.46,0,0,0,358.39,253Z"/><path class="cls-1" d="M363,256.38a54.56,54.56,0,0,0,16.95,8,47,47,0,0,0,18,3,48.36,48.36,0,0,0,47.41-46.75,47.14,47.14,0,0,0-2.72-18,53.58,53.58,0,0,0-7.75-17.05,47.67,47.67,0,0,1,11.52,15.71,50.9,50.9,0,0,1,2.95,19.52A52,52,0,0,1,445,240a52.76,52.76,0,0,1-27.63,27.28,53.45,53.45,0,0,1-38.82.84A47,47,0,0,1,363,256.38Z"/><path class="cls-1" d="M365,247.15a39,39,0,0,1-9.72-12.85,44.17,44.17,0,0,1,.7-32.1,43.63,43.63,0,0,1,22.55-22.84,43.16,43.16,0,0,1,15.93-3.61,42.27,42.27,0,0,1,16.14,2.44,39.67,39.67,0,0,1,13,9.52,44.55,44.55,0,0,0-14.1-6.4,38.81,38.81,0,0,0-14.91-2.25,39.91,39.91,0,0,0-38.66,39.2,38.84,38.84,0,0,0,2.49,14.87A45.46,45.46,0,0,0,365,247.15Z"/><path class="cls-1" d="M368.76,249.91a45.06,45.06,0,0,0,14,6.59,38.93,38.93,0,0,0,14.88,2.5,39.82,39.82,0,0,0,14.76-3.11,40.28,40.28,0,0,0,21.1-20.84,39.89,39.89,0,0,0,3.34-14.71,39,39,0,0,0-2.25-14.91,44.48,44.48,0,0,0-6.41-14.1,39.46,39.46,0,0,1,9.53,13,42.24,42.24,0,0,1,2.44,16.14,43.54,43.54,0,0,1-58.56,39.18A38.85,38.85,0,0,1,368.76,249.91Z"/><path class="cls-1" d="M371.14,241.61a31.34,31.34,0,0,1-7.81-10.31,34.9,34.9,0,0,1-2.14-13,34.43,34.43,0,0,1,2.71-12.84,34.89,34.89,0,0,1,30.9-21.25,34.09,34.09,0,0,1,13,2,32,32,0,0,1,10.44,7.65,35.67,35.67,0,0,0-11.33-5.14,31.33,31.33,0,0,0-12-1.81,32.21,32.21,0,0,0-28.55,19.63,31.78,31.78,0,0,0-2.5,11.86,31,31,0,0,0,2,12A36.36,36.36,0,0,0,371.14,241.61Z"/><path class="cls-1" d="M374.19,243.84a36.41,36.41,0,0,0,11.26,5.29,31.21,31.21,0,0,0,11.95,2,32.15,32.15,0,0,0,31.49-31,31.33,31.33,0,0,0-1.81-12,35.82,35.82,0,0,0-5.15-11.33,31.69,31.69,0,0,1,7.65,10.44,33.87,33.87,0,0,1,2,13,35,35,0,0,1-47,31.47A31.27,31.27,0,0,1,374.19,243.84Z"/><path class="cls-1" d="M380.13,233.57a20.12,20.12,0,0,1-5-6.65,22.46,22.46,0,0,1,20.26-30.28,21.56,21.56,0,0,1,8.35,1.26,20.84,20.84,0,0,1,6.72,4.92,22.4,22.4,0,0,0-7.29-3.31,20,20,0,0,0-7.71-1.16,20.7,20.7,0,0,0-20,20.27,20.22,20.22,0,0,0,1.29,7.7A23.54,23.54,0,0,0,380.13,233.57Z"/><path class="cls-1" d="M382.09,235a23.54,23.54,0,0,0,7.25,3.41A20.2,20.2,0,0,0,397,239.7a20.7,20.7,0,0,0,20.28-20,20,20,0,0,0-1.16-7.71,22.36,22.36,0,0,0-3.32-7.3,21,21,0,0,1,4.93,6.72,21.78,21.78,0,0,1,1.26,8.35,22.41,22.41,0,0,1-21.95,21.65,22.15,22.15,0,0,1-8.33-1.39A20.09,20.09,0,0,1,382.09,235Z"/></svg>