<svg xmlns="http://www.w3.org/2000/svg" width="65.146" height="45.843" viewBox="0 0 65.146 45.843">
  <g id="useicon-agro" transform="translate(-48.8 -18.692)">
    <path id="Path_4" data-name="Path 4" d="M82.016,33.363c.693-1.1,1.3-2.119,1.956-3.137.9.53,1.752.978,2.567,1.507a2.221,2.221,0,0,0,1.752.244,25.311,25.311,0,0,0-.041-4.359c-.2,0-.407.041-.652.041-.041.367-.041.652-.081.937-.57.163-.733.122-.733-.244a12.569,12.569,0,0,1,0-1.752c0-.244.163-.367.407-.367a.375.375,0,0,1,.407.367,2.439,2.439,0,0,0,.081.489h1.3c.081.856.041,1.67.041,2.445V31.9c.122.081.163.081.2.122.163,0,.326.041.448.041a66.913,66.913,0,0,1,10.674.815,26.554,26.554,0,0,1,5.622,1.467,8.047,8.047,0,0,1,2.2,1.3,1.181,1.181,0,0,1,.367.611c.081.489.122,1.019.163,1.548l.489,5.133a2.209,2.209,0,0,0,.367.978,1.417,1.417,0,0,1,.163,1.711c-.244.081-.448.163-.652.244a1.473,1.473,0,0,1-1.1-.57,1.361,1.361,0,0,0-.856-.326,14.384,14.384,0,0,0-1.874,0,1.014,1.014,0,0,0-.774.285,1.959,1.959,0,0,1-1.222.611,1.3,1.3,0,0,0-1.507.122c-.448.285-.937.53-1.385.815a1.163,1.163,0,0,0-.652.9,1.041,1.041,0,0,1-.937.9,1.148,1.148,0,0,0-.815.611c-.326.57-.652,1.1-.978,1.67a1.122,1.122,0,0,0-.081,1.019c.041.163.041.326.081.53h-5.7c-.041-.53-.041-.978-.081-1.548H76.312c-.163-.937-.163-.937-.937-1.67-.081-.367-.2-.733-.285-1.1.326-.733.367-1.1.041-1.589-.407-.774-.856-1.507-1.3-2.282a1.38,1.38,0,0,0-1.141-.733,1.013,1.013,0,0,0-.326-.041c-.326-.285-.57-.53-.856-.774a1.683,1.683,0,0,0-1.019-1.63c-.57-.285-1.1-.611-1.63-.937a1.664,1.664,0,0,0-2-.163c-.407-.122-.774-.2-1.182-.326a1.669,1.669,0,0,0-1.752-.856c-.733.041-1.426,0-2.159,0a1.528,1.528,0,0,0-1.019.326,3.518,3.518,0,0,0-.53.57c-.367.081-.733.2-1.141.326-.041-.326-.081-.57-.122-.9a11.655,11.655,0,0,0-3.667-.978c-1.263-.163-2.526-.244-3.789-.367V35.929c2.078-1.874,4.685-2.241,7.374-2.4v-13.2a4.427,4.427,0,0,1,.041-.733,1.227,1.227,0,0,1,1.263-.9,1.2,1.2,0,0,1,1.1,1.182V32.792a3.728,3.728,0,0,0,.041.693h.937v-4.97h2.4v3.748a2.713,2.713,0,0,1,.489.244l9.289,4.278a2.04,2.04,0,0,1,.9.774c.652,1.059,1.3,2.078,2,3.1.367.53.693,1.1,1.019,1.589h4.033V39.107c-1.182-.9-2.322-1.793-3.463-2.689V34.381h2.119c-.652-1.141-1.222-2.159-1.833-3.219-.53.285-.978.57-1.467.856a1.369,1.369,0,0,1-.57.2.428.428,0,0,1-.367-.2.7.7,0,0,1,.041-.489c.041-.122.2-.163.326-.244,1.507-.9,3.015-1.752,4.522-2.648.2-.122.448-.244.693-.041s.2.407.081.693c-.611.367-1.263.774-2,1.182C80.875,31.366,81.4,32.3,82.016,33.363Z" transform="translate(-1.6 0)" fill="#fff"/>
    <path id="Path_5" data-name="Path 5" d="M68.315,92.638c-.489.285-.978.53-1.467.856-.53.367-1.059.489-1.507,0-.611.163-1.222.326-1.793.489-.163.652-.652.815-1.3.774a13.158,13.158,0,0,0-1.793,0c-.611.041-1.1-.122-1.263-.774-.611-.163-1.182-.326-1.793-.489-.652.407-.774.448-1.182.2l-2.322-1.344a.745.745,0,0,1-.367-.733v-.285c-.489-.489-.9-.937-1.344-1.385a1.024,1.024,0,0,1-1.263-.652c-.285-.57-.611-1.1-.937-1.63s-.448-1.019.041-1.467c-.163-.652-.326-1.222-.489-1.874-.448-.122-.733-.367-.733-.815V80.822a.713.713,0,0,1,.448-.693,2.4,2.4,0,0,1,.326-.163c.163-.611.326-1.182.489-1.793-.489-.407-.407-.856-.081-1.344.326-.53.652-1.059.937-1.63s.652-.937,1.344-.774c.448-.448.856-.9,1.3-1.385-.2-.57.163-.937.733-1.222.611-.326,1.182-.693,1.793-1.019a.862.862,0,0,1,1.1.041.688.688,0,0,0,.2.081l1.711-.489c.367-.652.448-.733.9-.733h2.689a.734.734,0,0,1,.652.367,2.955,2.955,0,0,0,.2.367c.652.163,1.222.326,1.793.489.57-.367.774-.407,1.182-.163.733.407,1.467.856,2.2,1.263a.737.737,0,0,1,.407.774v.326c.448.448.856.9,1.3,1.344.693-.2,1.019.2,1.344.774.285.53.53,1.019.856,1.507a1.133,1.133,0,0,1,0,1.548c.163.611.326,1.182.489,1.793.611.163.774.57.733,1.182a15.661,15.661,0,0,0,0,1.956c.041.652-.122,1.1-.733,1.263l-.489,1.833c.489.448.367.9.041,1.426s-.652,1.059-.937,1.63-.652.9-1.182.733c-.489.489-.937.9-1.385,1.344C69.13,92.149,69.13,92.149,68.315,92.638Zm.163-10.674A7.115,7.115,0,1,0,61.471,89.3,7.15,7.15,0,0,0,68.478,81.963Z" transform="translate(0 -30.226)" fill="#fff"/>
    <path id="Path_6" data-name="Path 6" d="M162.241,93.419a.722.722,0,0,1,.57-.9c.122-.489.244-.937.367-1.385-.326-.611-.326-.611,0-1.182.2-.326.407-.693.611-1.059.367-.611.367-.611.937-.611.407-.407.774-.733,1.141-1.1-.163-.448.041-.693.448-.9a6.555,6.555,0,0,0,1.141-.693.836.836,0,0,1,1.182,0c.489-.122.937-.244,1.385-.367.122-.2.285-.367.367-.53h2.567a5.963,5.963,0,0,1,.367.53c.448.122.9.244,1.385.367a.836.836,0,0,1,1.182,0,8.967,8.967,0,0,0,1.059.611c.448.2.733.489.611.978.367.367.693.693,1.019,1.059a3.727,3.727,0,0,0,.693.041c.326.57.652,1.141.978,1.67.244.367.326.733-.041,1.059.163.489.285.978.407,1.426.489.285.53.285.53.652v2.078a.579.579,0,0,1-.081.244,4.442,4.442,0,0,0-.448.244c-.122.489-.244.978-.367,1.385.122.244.2.407.285.611-.285.53-.611,1.059-.9,1.589-.244.448-.53.774-.978.693-.367.367-.693.693-1.059,1.019a4.707,4.707,0,0,1-.081.652c-.53.285-1.059.57-1.548.9-.448.285-.856.407-1.263.041-.489.122-.937.244-1.426.367-.122.489-.489.611-.978.57a5.338,5.338,0,0,0-1.141,0c-.53.041-.978-.081-1.141-.611-.489-.122-.978-.244-1.426-.367a.687.687,0,0,1-.856.163c-.652-.367-1.263-.733-1.915-1.1v-.611c-.367-.407-.693-.733-1.059-1.141-.57.285-.774-.163-1.019-.57a8.963,8.963,0,0,0-.611-1.059c-.285-.407-.407-.815,0-1.182-.122-.489-.244-.937-.367-1.385a3.467,3.467,0,0,0-.57-.367C162.241,94.722,162.241,94.071,162.241,93.419Zm9.411,5.215a4.423,4.423,0,0,0,4.522-4.482,4.482,4.482,0,1,0-8.963-.041A4.413,4.413,0,0,0,171.652,98.634Z" transform="translate(-67.199 -39.115)" fill="#fff"/>
  </g>
</svg>
