<?xml version="1.0" encoding="utf-8"?>
<!-- Generator: Adobe Illustrator 24.3.0, SVG Export Plug-In . SVG Version: 6.00 Build 0)  -->
<svg version="1.1" id="Layer_1" xmlns="http://www.w3.org/2000/svg" xmlns:xlink="http://www.w3.org/1999/xlink" x="0px" y="0px"
	 viewBox="0 0 167 137" style="enable-background:new 0 0 167 137;" xml:space="preserve">
<style type="text/css">
	.st0{fill:#505050;}
</style>
<path class="st0" d="M122.2,37.2h-14.3c-0.6,0-1.1-0.5-1.1-1.1c0-0.3,0.2-0.6,0.4-0.9l2-1.6c0.6-0.5,1.4-0.8,2.2-0.8h7.3
	c0.8,0,1.6,0.3,2.2,0.8l2,1.6c0.5,0.3,0.5,1,0.2,1.5C122.8,37.1,122.5,37.2,122.2,37.2L122.2,37.2z M111.3,35.1L111.3,35.1z"/>
<path class="st0" d="M59.9,37.2H45.6c-0.6,0-1.1-0.5-1.1-1.1l0,0c0-0.3,0.2-0.6,0.4-0.9l2-1.6c0.6-0.5,1.4-0.8,2.2-0.8h7.3
	c0.8,0,1.6,0.3,2.2,0.8l2,1.6c0.5,0.3,0.5,1,0.2,1.5C60.5,37.1,60.2,37.2,59.9,37.2L59.9,37.2z M49,35.1L49,35.1z"/>
<path class="st0" d="M87.6,105h-7.3c-0.8,0-1.6-0.3-2.2-0.8l-2-1.6c-0.5-0.3-0.5-1-0.2-1.5c0.2-0.2,0.5-0.4,0.9-0.4h14.3
	c0.6,0,1.1,0.5,1.1,1l0,0c0,0.3-0.2,0.6-0.4,0.9l-2,1.6C89.2,104.7,88.5,105,87.6,105z M80.3,102.8L80.3,102.8z"/>
<path class="st0" d="M119.4,94.9h-70c-2.6,0-4.7-2.1-4.7-4.7V47.7c0-2.6,2.2-4.7,4.7-4.7h70c2.6,0,4.7,2.1,4.7,4.7v42.4
	C124.1,92.8,122,94.9,119.4,94.9z M49.3,44.8c-1.6,0-2.9,1.3-2.9,2.9v42.4c0,1.6,1.3,2.9,2.9,2.9h70c1.6,0,2.9-1.3,2.9-2.9V47.7
	c0-1.6-1.3-2.9-2.9-2.9H49.3z"/>
<path class="st0" d="M113.9,85H105c-1.5,0-2.6-1.2-2.6-2.6l0,0v-8.9c0-1.5,1.2-2.6,2.6-2.6h8.9c1.5,0,2.6,1.2,2.6,2.6v8.9
	C116.5,83.8,115.4,85,113.9,85L113.9,85z M105.1,72.3c-0.6,0-1.2,0.5-1.2,1.2v8.9c0,0.6,0.5,1.2,1.2,1.2h8.9c0.6,0,1.2-0.5,1.2-1.2
	v-9c0-0.6-0.5-1.2-1.2-1.2L105.1,72.3L105.1,72.3z"/>
<path class="st0" d="M97.2,85h-8.8c-1.5,0-2.6-1.2-2.6-2.6v-8.9c0-1.5,1.2-2.6,2.6-2.6h8.9c1.5,0,2.6,1.2,2.6,2.6v8.9
	C99.9,83.8,98.6,85,97.2,85L97.2,85z M88.3,72.3c-0.6,0-1.2,0.5-1.2,1.2v8.9c0,0.6,0.5,1.2,1.2,1.2h8.9c0.6,0,1.2-0.5,1.2-1.2v-9
	c0-0.6-0.5-1.2-1.2-1.2L88.3,72.3L88.3,72.3z"/>
<path class="st0" d="M113.7,67.1h-8.8c-1.5,0-2.6-1.2-2.6-2.6v-8.9c0-1.5,1.2-2.6,2.6-2.6h8.9c1.5,0,2.6,1.2,2.6,2.6v8.9
	C116.3,65.9,115.2,67.1,113.7,67.1L113.7,67.1z M104.9,54.4c-0.6,0-1.2,0.5-1.2,1.2v8.9c0,0.6,0.5,1.2,1.2,1.2h8.9
	c0.6,0,1.2-0.5,1.2-1.2v-8.9c0-0.6-0.5-1.2-1.2-1.2H104.9z"/>
<path class="st0" d="M97,67.1h-8.8c-1.5,0-2.6-1.2-2.6-2.6v-8.9c0-1.5,1.2-2.6,2.6-2.6h8.9c1.5,0,2.6,1.2,2.6,2.6v8.9
	C99.6,65.9,98.5,67.1,97,67.1z M88.2,54.4c-0.6,0-1.2,0.5-1.2,1.2v8.9c0,0.6,0.5,1.2,1.2,1.2h8.9c0.6,0,1.2-0.5,1.2-1.2v-8.9
	c0-0.6-0.5-1.2-1.2-1.2H88.2z"/>
<path class="st0" d="M57.6,70c0,0.3-0.1,0.7-0.2,1c-0.1,0.3-0.2,0.6-0.4,0.8c-0.2,0.2-0.4,0.5-0.6,0.6c-0.2,0.2-0.5,0.3-0.8,0.4
	c-0.3,0.1-0.6,0.2-1,0.2c-0.4,0.1-0.8,0.1-1.2,0.1h-2.8c-0.2,0-0.3-0.1-0.5-0.2C50,72.9,50,72.6,50,72.5v-9.1c0-0.2,0.1-0.3,0.2-0.5
	c0.1-0.1,0.3-0.2,0.5-0.2h2.6c0.6,0,1.1,0.1,1.6,0.2c0.4,0.1,0.8,0.2,1.1,0.5c0.3,0.2,0.5,0.5,0.7,0.8c0.2,0.3,0.2,0.8,0.2,1.2
	c0,0.2-0.1,0.5-0.1,0.7c-0.1,0.2-0.2,0.4-0.3,0.6c-0.1,0.2-0.3,0.3-0.5,0.5c-0.2,0.2-0.4,0.3-0.6,0.3c0.3,0.1,0.6,0.2,0.8,0.3
	c0.2,0.1,0.5,0.3,0.6,0.5c0.2,0.2,0.3,0.5,0.5,0.8C57.5,69.4,57.6,69.7,57.6,70z M54.8,65.6c0-0.2-0.1-0.4-0.1-0.6
	c-0.1-0.2-0.2-0.3-0.3-0.4c-0.1-0.1-0.3-0.2-0.5-0.2c-0.2-0.1-0.5-0.1-0.8-0.1h-1V67h1.2c0.2,0,0.5,0,0.8-0.1
	c0.2-0.1,0.3-0.2,0.5-0.3c0.1-0.1,0.2-0.3,0.3-0.5C54.8,65.9,54.8,65.8,54.8,65.6L54.8,65.6z M55.3,70.1c0-0.2-0.1-0.5-0.1-0.6
	c-0.1-0.2-0.2-0.3-0.3-0.5s-0.4-0.2-0.6-0.3c-0.3-0.1-0.6-0.1-0.9-0.1h-1.2v3h1.6c0.2,0,0.5,0,0.8-0.1c0.2-0.1,0.3-0.2,0.5-0.3
	c0.2-0.1,0.3-0.3,0.3-0.5C55.3,70.5,55.4,70.3,55.3,70.1L55.3,70.1z"/>
<path class="st0" d="M71.6,72.9c0,0.1,0,0.1-0.1,0.2s-0.1,0.1-0.2,0.1c-0.1,0.1-0.2,0.1-0.3,0.1c-0.2,0-0.3,0-0.5,0
	c-0.2,0-0.3,0-0.5,0s-0.2-0.1-0.3-0.1c-0.1,0-0.1-0.1-0.2-0.1s-0.1-0.1-0.1-0.2v-8.6l0,0l-3,8.6c0,0.1-0.1,0.1-0.1,0.2
	s-0.1,0.1-0.2,0.1c-0.1,0.1-0.2,0.1-0.3,0.1h-0.5c-0.2,0-0.3,0-0.5,0c-0.1,0-0.2-0.1-0.3-0.1c-0.1,0-0.1-0.1-0.2-0.1
	c-0.1-0.1-0.1-0.1-0.1-0.2l-3-8.6l0,0v8.6c0,0.1,0,0.1-0.1,0.2c-0.1,0.1-0.1,0.1-0.2,0.1c-0.1,0.1-0.2,0.1-0.3,0.1
	c-0.2,0-0.3,0-0.5,0s-0.3,0-0.5,0c-0.1,0-0.2-0.1-0.3-0.1c-0.1,0-0.1-0.1-0.2-0.1c-0.1-0.1-0.1-0.1-0.1-0.2v-9.4
	c0-0.2,0.1-0.5,0.2-0.6s0.3-0.2,0.6-0.2h1.4c0.2,0,0.4,0,0.6,0.1c0.2,0.1,0.3,0.1,0.5,0.2c0.1,0.1,0.2,0.2,0.3,0.3
	c0.1,0.2,0.2,0.3,0.2,0.6l2.3,6.3l0,0l2.4-6.3c0.1-0.2,0.1-0.4,0.2-0.6c0.1-0.2,0.2-0.3,0.3-0.4c0.1-0.1,0.2-0.2,0.4-0.2
	c0.2-0.1,0.3-0.1,0.5-0.1h1.5c0.1,0,0.2,0,0.4,0.1c0.1,0.1,0.2,0.1,0.2,0.2c0.1,0.1,0.1,0.2,0.2,0.3c0.1,0.1,0.1,0.2,0.1,0.3
	L71.6,72.9z"/>
<path class="st0" d="M80.2,70c0,0.5-0.1,1-0.3,1.5c-0.2,0.4-0.5,0.8-0.8,1c-0.3,0.3-0.8,0.5-1.2,0.6c-0.5,0.1-1,0.2-1.5,0.2
	c-0.3,0-0.7,0-1-0.1c-0.3-0.1-0.6-0.1-0.8-0.2c-0.2-0.1-0.4-0.2-0.6-0.3c-0.1-0.1-0.2-0.2-0.3-0.2c-0.1-0.1-0.1-0.2-0.2-0.3
	c-0.1-0.2-0.1-0.4-0.1-0.6c0-0.2,0-0.3,0-0.4c0-0.1,0-0.2,0.1-0.3c0-0.1,0.1-0.1,0.1-0.2c0.1-0.1,0.1-0.1,0.1-0.1
	c0.1,0,0.2,0.1,0.3,0.1c0.1,0.1,0.3,0.2,0.5,0.3c0.2,0.1,0.5,0.2,0.8,0.3c0.3,0.1,0.7,0.1,1,0.1c0.2,0,0.5-0.1,0.7-0.1
	c0.2-0.1,0.3-0.1,0.5-0.3c0.1-0.1,0.2-0.2,0.3-0.4c0.1-0.2,0.1-0.3,0.1-0.6c0-0.2-0.1-0.5-0.2-0.6c-0.1-0.2-0.3-0.3-0.5-0.5
	c-0.2-0.1-0.5-0.3-0.7-0.3l-0.9-0.2c-0.3-0.1-0.6-0.3-0.8-0.5c-0.2-0.2-0.5-0.3-0.7-0.6c-0.2-0.2-0.4-0.5-0.5-0.8
	c-0.1-0.3-0.2-0.8-0.2-1.1c0-0.5,0.1-0.9,0.3-1.3c0.2-0.3,0.4-0.7,0.8-0.9c0.3-0.2,0.7-0.5,1.1-0.6c0.5-0.1,0.9-0.2,1.4-0.2
	c0.2,0,0.5,0,0.8,0.1c0.2,0.1,0.5,0.1,0.7,0.2c0.2,0.1,0.4,0.1,0.6,0.2c0.1,0.1,0.2,0.1,0.3,0.2c0.1,0.1,0.1,0.1,0.1,0.1
	c0,0.1,0.1,0.1,0.1,0.2c0,0.1,0,0.2,0,0.2c0,0.1,0,0.2,0,0.3c0,0.1,0,0.3,0,0.4c0,0.1,0,0.2-0.1,0.3c0,0.1-0.1,0.1-0.1,0.2
	c-0.1-0.1-0.1-0.1-0.2-0.1c-0.1,0-0.2-0.1-0.3-0.1l-0.5-0.2c-0.2-0.1-0.4-0.2-0.6-0.2c-0.3-0.1-0.5-0.1-0.8-0.1
	c-0.2,0-0.4,0-0.6,0.1c-0.2,0.1-0.3,0.1-0.4,0.2c-0.1,0.1-0.2,0.2-0.2,0.3c-0.1,0.1-0.1,0.3-0.1,0.5c0,0.2,0.1,0.4,0.2,0.6
	c0.1,0.2,0.3,0.3,0.5,0.5c0.2,0.1,0.5,0.3,0.7,0.3c0.3,0.1,0.6,0.2,0.8,0.3c0.3,0.1,0.6,0.3,0.8,0.5c0.2,0.2,0.5,0.3,0.7,0.6
	c0.2,0.2,0.4,0.5,0.5,0.8C80.1,69.3,80.2,69.7,80.2,70z"/>
<path class="st0" d="M126.6,35.1h-23.1c-1.9,0-3.5,1.6-3.5,3.5v5.4h2.2v-5.4c0-0.7,0.6-1.3,1.3-1.3h23.1c0.7,0,1.3,0.6,1.3,1.3v60.7
	c0,0.7-0.6,1.3-1.3,1.3h-23.1c-0.7,0-1.3-0.6-1.3-1.3V94H100v5.3c0,1.9,1.6,3.5,3.5,3.5h23.1c1.9,0,3.5-1.6,3.5-3.5V38.6
	C130.1,36.6,128.5,35.1,126.6,35.1z"/>
<path class="st0" d="M71.2,43.9v-5.4c0-0.7,0.6-1.3,1.3-1.3h23.1c0.7,0,1.3,0.6,1.3,1.3v5.4H99v-5.4c0-1.9-1.6-3.5-3.5-3.5H72.4
	c-1.9,0-3.5,1.6-3.5,3.5v5.4H71.2z"/>
<path class="st0" d="M96.8,94v5.4c0,0.7-0.6,1.3-1.3,1.3H72.4c-0.7,0-1.3-0.6-1.3-1.3V94H69v5.4c0,1.9,1.6,3.5,3.5,3.5h23.1
	c1.9,0,3.5-1.6,3.5-3.5V94H96.8z"/>
<path class="st0" d="M65.6,94v5.3c0,0.7-0.6,1.3-1.3,1.3H41.1c-0.7,0-1.3-0.6-1.3-1.3V38.6c0-0.7,0.6-1.3,1.3-1.3h23.1
	c0.7,0,1.3,0.6,1.3,1.3v5.4h2.2v-5.4c0-1.9-1.6-3.5-3.5-3.5H41.1c-1.9,0-3.5,1.6-3.5,3.5v60.7c0,1.9,1.6,3.5,3.5,3.5h23.1
	c1.9,0,3.5-1.6,3.5-3.5V94L65.6,94z"/>
</svg>
