<?xml version="1.0" encoding="utf-8"?>
<!-- Generator: Adobe Illustrator 24.3.0, SVG Export Plug-In . SVG Version: 6.00 Build 0)  -->
<svg version="1.1" id="Layer_1" xmlns="http://www.w3.org/2000/svg" xmlns:xlink="http://www.w3.org/1999/xlink" x="0px" y="0px"
	 viewBox="0 0 167 137" style="enable-background:new 0 0 167 137;" xml:space="preserve">
<style type="text/css">
	.st0{fill:none;stroke:#505050;stroke-width:1.8609;stroke-miterlimit:10;}
	.st1{fill:none;stroke:#505050;stroke-width:1.8517;stroke-miterlimit:10;}
	.st2{fill:#505150;}
</style>
<path class="st0" d="M40.3,42.2h80.8c2.5,0,4.6,2,4.6,4.6V91c0,2.5-2,4.6-4.6,4.6H40.3c-2.5,0-4.6-2-4.6-4.6V46.8
	C35.8,44.3,37.8,42.2,40.3,42.2z"/>
<rect x="125.7" y="55.5" class="st1" width="6.3" height="26.6"/>
<path class="st2" d="M50.4,91.4h-6.4c-2.2,0-3.9-1.8-3.9-3.9V50.1c0-2.2,1.8-3.9,3.9-3.9h6.4c2.2,0,3.9,1.8,3.9,3.9v37.3
	C54.3,89.6,52.5,91.4,50.4,91.4z"/>
<path class="st2" d="M67.1,91.4h-6.4c-2.2,0-3.9-1.8-3.9-3.9V50.1c0-2.2,1.8-3.9,3.9-3.9h6.4c2.2,0,3.9,1.8,3.9,3.9v37.3
	C71.1,89.6,69.3,91.4,67.1,91.4z"/>
<path class="st2" d="M83.9,91.4h-6.4c-2.2,0-3.9-1.8-3.9-3.9V50.1c0-2.2,1.8-3.9,3.9-3.9h6.4c2.2,0,3.9,1.8,3.9,3.9v37.3
	C87.8,89.6,86.1,91.4,83.9,91.4z"/>
<path class="st2" d="M100.7,91.4h-6.4c-2.2,0-3.9-1.8-3.9-3.9V50.1c0-2.2,1.8-3.9,3.9-3.9h6.4c2.2,0,3.9,1.8,3.9,3.9v37.3
	C104.6,89.6,102.9,91.4,100.7,91.4z"/>
<path class="st2" d="M117.5,91.4H111c-2.2,0-3.9-1.8-3.9-3.9V50.1c0-2.2,1.8-3.9,3.9-3.9h6.4c2.2,0,3.9,1.8,3.9,3.9v37.3
	C121.4,89.6,119.6,91.4,117.5,91.4z"/>
</svg>
