<?xml version="1.0" encoding="utf-8"?>
<!-- Generator: Adobe Illustrator 24.3.0, SVG Export Plug-In . SVG Version: 6.00 Build 0)  -->
<svg version="1.1" id="Layer_1" xmlns="http://www.w3.org/2000/svg" xmlns:xlink="http://www.w3.org/1999/xlink" x="0px" y="0px"
	 viewBox="0 0 167 137" style="enable-background:new 0 0 167 137;" xml:space="preserve">
<style type="text/css">
	.st0{fill:#505050;}
	.st1{fill:#FFFFFF;}
</style>
<path class="st0" d="M116.4,35.9l-1.6-1.6c-0.5-0.5-1.3-0.6-1.9-0.1c-0.5,0.5-0.6,1.3-0.1,1.9c0.1,0.1,0.1,0.1,0.1,0.1l1.6,1.6
	c17.3,17.3,17.3,45.3,0,62.7c-0.5,0.5-1,1-1.6,1.5c-0.2,0.2-0.4,0.6-0.4,0.9s0.1,0.7,0.3,0.9c0.5,0.5,1.3,0.6,1.9,0.1
	c19.2-17.3,20.7-47,3.4-66.2C117.5,37.1,117,36.5,116.4,35.9L116.4,35.9z"/>
<path class="st0" d="M113.7,56.3c-1.7-4.5-4.5-8.6-7.9-12l-1.2-1.2c-0.5-0.5-1.3-0.5-1.9,0c-0.5,0.5-0.5,1.3,0,1.9l0,0l1.2,1.2
	c12.7,12.7,12.7,33.3,0,46c-0.4,0.4-0.8,0.8-1.2,1.1c-0.5,0.5-0.6,1.3-0.1,1.9c0.5,0.5,1.3,0.6,1.9,0.1
	C115.4,85.4,119,70,113.7,56.3z"/>
<path class="st0" d="M37.2,70.2c-0.3-12.2,4.4-23.9,13-32.5l1.6-1.6c0.5-0.5,0.5-1.3,0-1.9l0,0c-0.2-0.2-0.6-0.4-0.9-0.4
	c-0.3,0-0.7,0.1-0.9,0.4l-1.6,1.6C30,54.2,30,83.9,48.3,102.2c0.6,0.6,1.2,1.2,1.8,1.7l0,0c0.5,0.5,1.3,0.4,1.9-0.1
	c0.2-0.2,0.3-0.6,0.3-0.9s-0.2-0.7-0.4-0.9C42.8,93.9,37.5,82.3,37.2,70.2z"/>
<path class="st0" d="M62,43c-0.5-0.5-1.3-0.5-1.9,0l0,0L59,44.2C45.2,58,45.2,80.2,58.9,94c0.4,0.4,0.9,0.8,1.3,1.2
	c0.5,0.5,1.3,0.4,1.9-0.1c0.5-0.5,0.5-1.4-0.1-1.9c-13.3-12-14.4-32.6-2.3-46c0.3-0.4,0.8-0.8,1.1-1.2l1.2-1.2
	C62.6,44.4,62.6,43.5,62,43L62,43z"/>
<circle class="st0" cx="82" cy="69.9" r="3.6"/>
<path class="st1" d="M82,65.9c-2.2,0-4,1.7-4.1,4c0,2.2,1.7,4,4,4.1c2.2,0,4-1.7,4.1-4c0,0,0,0,0-0.1C85.9,67.7,84.2,65.9,82,65.9z
	 M82,73.5c-2,0-3.5-1.6-3.5-3.6s1.6-3.5,3.6-3.5s3.5,1.6,3.5,3.5C85.6,71.9,84,73.5,82,73.5L82,73.5z"/>
<path class="st0" d="M81.8,51.5c-10.2,0-18.4,8.3-18.4,18.4s8.3,18.4,18.4,18.4s18.4-8.3,18.4-18.4l0,0
	C100.3,59.8,92,51.5,81.8,51.5z M81.8,86C73,86,65.8,78.8,65.8,70S73,53.9,81.8,53.9S97.9,61.1,97.9,70S90.7,86,81.8,86L81.8,86
	L81.8,86z"/>
</svg>
