<svg id="Layer_1" data-name="Layer 1" xmlns="http://www.w3.org/2000/svg" viewBox="0 0 792 612"><defs><style>.cls-1{fill:#fff;}</style></defs><path class="cls-1" d="M250.18,432.4c-2.22-2-4.46-4-6.64-6s-4.28-4.21-6.35-6.4l-3-3.36c-1-1.13-2-2.24-3-3.42l-2.87-3.52c-1-1.17-1.93-2.35-2.82-3.58a176.91,176.91,0,0,1-19-31.38c-.64-1.41-1.19-2.85-1.7-4.3s-.85-3-1.29-4.43-.87-2.95-1.33-4.42-.81-3-1.21-4.45l-1.18-4.46c-.36-1.49-.66-3-1-4.5l-1-4.51-.77-4.55A195.15,195.15,0,0,1,454.86,122.84a180.55,180.55,0,0,1,31.62,18.56c4.9,3.59,9.57,7.44,14.06,11.44,2.24,2,4.35,4.17,6.5,6.23s4.12,4.35,6.14,6.52l-7.47-4.85c-2.56-1.5-5-3.08-7.63-4.5-5.13-2.88-10.32-5.59-15.64-8a194.84,194.84,0,0,0-32.57-11.43A179.94,179.94,0,0,0,209.3,302.69a177.42,177.42,0,0,0,11.3,66.78,199.47,199.47,0,0,0,11.9,32.38c.58,1.35,1.25,2.64,1.91,3.94l2,3.91c1.33,2.61,2.85,5.11,4.28,7.69s3,5,4.58,7.58Z"/><path class="cls-1" d="M267.21,444.81l7.43,4.93c2.54,1.53,5,3.12,7.58,4.58s5.08,2.94,7.69,4.28l3.91,2c1.3.66,2.59,1.33,3.94,1.9a199.51,199.51,0,0,0,32.38,11.91,177.62,177.62,0,0,0,66.78,11.3A180.27,180.27,0,0,0,562.76,245.12a194.21,194.21,0,0,0-11.43-32.57c-2.38-5.32-5.08-10.51-8-15.64-1.42-2.58-3-5.07-4.5-7.63L534,181.8c2.17,2,4.39,4,6.52,6.14s4.22,4.27,6.23,6.51c4,4.49,7.85,9.16,11.43,14.05a180.06,180.06,0,0,1,18.57,31.63A195.2,195.2,0,0,1,360.51,497.91l-4.55-.77-4.51-1c-1.5-.33-3-.63-4.5-1L342.49,494c-1.48-.41-3-.76-4.45-1.21s-2.94-.92-4.42-1.33-3-.77-4.43-1.29-2.89-1.07-4.3-1.71a175.73,175.73,0,0,1-31.38-19c-1.23-.88-2.41-1.85-3.58-2.81l-3.52-2.87c-1.19-.93-2.29-2-3.42-3l-3.36-3c-2.19-2.07-4.28-4.25-6.4-6.35S269.19,447,267.21,444.81Z"/><path class="cls-1" d="M278.16,407.34c-1.78-1.59-3.58-3.18-5.33-4.83s-3.42-3.37-5.08-5.12-3.26-3.57-4.8-5.44l-2.3-2.82c-.77-.94-1.55-1.88-2.25-2.87a141.07,141.07,0,0,1-15.24-25.16c-.51-1.12-.95-2.28-1.36-3.44s-.68-2.37-1-3.55-.69-2.37-1.06-3.55-.65-2.37-1-3.56l-.95-3.58c-.29-1.2-.53-2.41-.79-3.61l-.78-3.61-.62-3.65A156.42,156.42,0,0,1,442.23,159.2,142.28,142.28,0,0,1,489,193.47a159.57,159.57,0,0,0-50.75-23A144.24,144.24,0,0,0,245.39,303.36a142.24,142.24,0,0,0,9.06,53.54,159.87,159.87,0,0,0,9.54,26c.46,1.07,1,2.11,1.53,3.15l1.59,3.13c1.07,2.09,2.28,4.1,3.42,6.17s2.45,4,3.68,6.08Z"/><path class="cls-1" d="M291.81,417.29l6,3.95c2,1.23,4,2.5,6.07,3.67s4.08,2.36,6.17,3.43l3.13,1.59c1,.53,2.08,1.06,3.16,1.52A159.47,159.47,0,0,0,342.25,441a142.44,142.44,0,0,0,53.54,9.06A144.5,144.5,0,0,0,528.72,257.22a159.52,159.52,0,0,0-23-50.76A142.42,142.42,0,0,1,540,253.22,156.46,156.46,0,0,1,366.6,459.85l-3.64-.62-3.62-.77c-1.2-.27-2.41-.51-3.61-.8l-3.58-.94c-1.18-.33-2.39-.61-3.56-1s-2.36-.74-3.55-1.07-2.39-.62-3.55-1-2.32-.86-3.44-1.37a142,142,0,0,1-25.16-15.23c-1-.71-1.93-1.48-2.87-2.25l-2.82-2.3c-1.87-1.54-3.63-3.21-5.44-4.8s-3.42-3.4-5.12-5.09S293.4,419.06,291.81,417.29Z"/><path class="cls-1" d="M300.4,387.42a112.29,112.29,0,0,1-28.11-37.14c-.42-.9-.77-1.83-1.1-2.76s-.55-1.91-.83-2.86-.56-1.9-.86-2.84-.52-1.91-.78-2.87l-.76-2.87c-.23-1-.42-1.94-.64-2.9l-.62-2.91-.5-2.92a125.66,125.66,0,0,1,166-139.25,114.32,114.32,0,0,1,37.56,27.52A128.52,128.52,0,0,0,429,197.11,115.89,115.89,0,0,0,274.07,303.9a114.41,114.41,0,0,0,7.28,43A130.33,130.33,0,0,0,300.4,387.42Z"/><path class="cls-1" d="M311.36,395.41a130.54,130.54,0,0,0,40.52,19,116.36,116.36,0,0,0,85.68-1.79,116.19,116.19,0,0,0,64.11-145.84,128.52,128.52,0,0,0-18.51-40.77,114.21,114.21,0,0,1,27.53,37.56,125.69,125.69,0,0,1-139.25,166l-2.93-.5-2.9-.62c-1-.22-1.94-.41-2.9-.64l-2.87-.76c-1-.26-1.92-.49-2.87-.78s-1.9-.57-2.85-.86-1.92-.49-2.85-.83-1.86-.68-2.76-1.1A112.43,112.43,0,0,1,311.36,395.41Z"/><path class="cls-1" d="M316.12,373.34a93,93,0,0,1-23.25-30.71,105,105,0,0,1-6.43-38.52,103.91,103.91,0,0,1,138.65-95.59,94.49,94.49,0,0,1,31.06,22.77A106.2,106.2,0,0,0,422.44,216a95.83,95.83,0,0,0-128.09,88.3,94.33,94.33,0,0,0,6,35.56A107.92,107.92,0,0,0,316.12,373.34Z"/><path class="cls-1" d="M325.19,380a107.92,107.92,0,0,0,33.5,15.75,96.2,96.2,0,0,0,70.84-1.48,96.08,96.08,0,0,0,53-120.59,106.32,106.32,0,0,0-15.31-33.71A94.28,94.28,0,0,1,490,271a103.73,103.73,0,0,1-95.58,138.66,105,105,0,0,1-38.52-6.44A92.73,92.73,0,0,1,325.19,380Z"/><path class="cls-1" d="M332.73,358.46a72.43,72.43,0,0,1-18.1-23.91,81.67,81.67,0,0,1-5-30,80.91,80.91,0,0,1,108-74.44,73.64,73.64,0,0,1,24.19,17.73,82.77,82.77,0,0,0-26.25-11.92,74.63,74.63,0,0,0-99.75,68.76,73.63,73.63,0,0,0,4.69,27.69A84,84,0,0,0,332.73,358.46Z"/><path class="cls-1" d="M339.79,363.61a84.13,84.13,0,0,0,26.09,12.26,73.67,73.67,0,0,0,27.69,4.69,74.73,74.73,0,0,0,68.76-99.75,82.52,82.52,0,0,0-11.91-26.25,73.62,73.62,0,0,1,17.72,24.19,80.77,80.77,0,0,1-74.43,108,81.67,81.67,0,0,1-30-5A72.47,72.47,0,0,1,339.79,363.61Z"/><path class="cls-1" d="M342.85,349.4a59.94,59.94,0,0,1-15-19.78,67.71,67.71,0,0,1-4.15-24.8A66.9,66.9,0,0,1,413,243.27a60.83,60.83,0,0,1,20,14.66,68.28,68.28,0,0,0-21.71-9.86,61.68,61.68,0,0,0-82.47,56.86,60.73,60.73,0,0,0,3.87,22.89A69.73,69.73,0,0,0,342.85,349.4Z"/><path class="cls-1" d="M348.69,353.65a69.5,69.5,0,0,0,21.58,10.14,61,61,0,0,0,22.89,3.88A61.82,61.82,0,0,0,450,285.19a68.16,68.16,0,0,0-9.86-21.71,60.87,60.87,0,0,1,14.66,20,66.77,66.77,0,0,1-61.55,89.28,67.7,67.7,0,0,1-24.8-4.14A60,60,0,0,1,348.69,353.65Z"/><path class="cls-1" d="M352.37,340.88a48.09,48.09,0,0,1-12-15.88,53.63,53.63,0,0,1,48.44-72.39,52,52,0,0,1,20,3A48.89,48.89,0,0,1,424.8,267.4a54.89,54.89,0,0,0-17.44-7.91,47.82,47.82,0,0,0-18.44-2.79,49.28,49.28,0,0,0-33.54,14.71,49.88,49.88,0,0,0-10.4,15.5,49.18,49.18,0,0,0-3.84,18.25,48,48,0,0,0,3.08,18.39A55.88,55.88,0,0,0,352.37,340.88Z"/><path class="cls-1" d="M357.06,344.3a56,56,0,0,0,17.32,8.14,48.29,48.29,0,0,0,18.39,3.09A49.4,49.4,0,0,0,411,351.68a49.74,49.74,0,0,0,26.08-25.76,49.12,49.12,0,0,0,4.12-18.18,48,48,0,0,0-2.78-18.44,54.87,54.87,0,0,0-7.92-17.43,48.92,48.92,0,0,1,11.78,16.06,52.33,52.33,0,0,1,3,19.95,53.83,53.83,0,0,1-72.39,48.44A48,48,0,0,1,357.06,344.3Z"/><path class="cls-1" d="M366.2,328.49a30.7,30.7,0,0,1-7.74-10.23,35.14,35.14,0,0,1,.55-25.55,34.77,34.77,0,0,1,7.25-10.8,34.41,34.41,0,0,1,23.38-10.25,33.49,33.49,0,0,1,12.85,1.94,31.42,31.42,0,0,1,10.34,7.58,35.35,35.35,0,0,0-11.22-5.1,31,31,0,0,0-11.87-1.79A31.79,31.79,0,0,0,359,305.5a31.09,31.09,0,0,0,2,11.84A35.85,35.85,0,0,0,366.2,328.49Z"/><path class="cls-1" d="M369.22,330.69a35.74,35.74,0,0,0,11.15,5.25,30.86,30.86,0,0,0,11.84,2A31.71,31.71,0,0,0,404,335.45a32.23,32.23,0,0,0,10-6.69,31.83,31.83,0,0,0,9.47-21.61,30.77,30.77,0,0,0-1.8-11.87,35.47,35.47,0,0,0-5.09-11.23,31.56,31.56,0,0,1,7.58,10.35,33.43,33.43,0,0,1,1.94,12.85,34.65,34.65,0,0,1-46.61,31.18A30.79,30.79,0,0,1,369.22,330.69Z"/></svg>