<?xml version="1.0" encoding="utf-8"?>
<!-- Generator: Adobe Illustrator 24.3.0, SVG Export Plug-In . SVG Version: 6.00 Build 0)  -->
<svg version="1.1" id="Layer_1" xmlns="http://www.w3.org/2000/svg" xmlns:xlink="http://www.w3.org/1999/xlink" x="0px" y="0px"
	 viewBox="0 0 792 612" style="enable-background:new 0 0 792 612;" xml:space="preserve">
<style type="text/css">
	.st0{fill:#595A5A;}
	.st1{fill:#507A38;}
</style>
<path class="st0" d="M173.8,287.4c7.3,0,11.9,4.4,11.9,10.4c0.1,4.1-2.4,7.8-6.2,9.3l11.9,16.3l-0.3,0.2H185l-0.3-0.2l-11.4-15.3
	h-4.7v15.3l-0.3,0.2h-4.7l-0.3-0.2v-35.8l0.3-0.3H173.8z M168.7,303h5.2c3.9,0,6-2.1,6-5.2s-2.1-5.2-6-5.2h-5.2V303z"/>
<path class="st0" d="M240.8,305.6c0.1,10.6-8.3,19.3-18.9,19.4c-10.6,0.1-19.3-8.3-19.4-18.9c-0.1-10.6,8.3-19.3,18.9-19.4
	c0.1,0,0.2,0,0.3,0C232.1,286.6,240.7,295,240.8,305.6z M208.3,305.6c0.1,7.3,6.2,13.1,13.5,13c7.3-0.1,13.1-6.2,13-13.5
	c-0.1-7.2-6-13-13.2-13C214.2,292.1,208.3,298.2,208.3,305.6C208.3,305.5,208.3,305.5,208.3,305.6L208.3,305.6z"/>
<path class="st0" d="M262.5,287.4l0.5,0.3l13,15.8l13-15.8l0.5-0.3h4.4l0.3,0.3v35.8l-0.3,0.2h-4.7l-0.3-0.2v-28.3l-12.7,15.6h-0.5
	l-12.7-15.6v28.3l-0.3,0.2h-4.7l-0.2-0.2v-35.8l0.2-0.3H262.5z"/>
<path class="st0" d="M334.9,287.4l0.3,0.3v4.7l-0.3,0.3H318v8.5h12.7l0.3,0.3v4.7l-0.3,0.3H318v12.2h18.4l0.3,0.3v4.7l-0.3,0.2
	h-23.3l-0.2-0.2v-35.8l0.2-0.3H334.9z"/>
<path class="st0" d="M387,305.6c0.1,10.6-8.3,19.3-18.9,19.4c-10.6,0.1-19.3-8.3-19.4-18.9c-0.1-10.6,8.3-19.3,18.9-19.4
	c0.1,0,0.2,0,0.3,0C378.3,286.6,386.9,295,387,305.6z M354.6,305.6c0.1,7.3,6.2,13.1,13.5,13c7.3-0.1,13.1-6.2,13-13.5
	c-0.1-7.2-6-13-13.2-13C360.5,292.1,354.5,298.2,354.6,305.6C354.6,305.5,354.6,305.6,354.6,305.6L354.6,305.6z"/>
<path class="st0" d="M173.8,287.4c7.3,0,11.9,4.4,11.9,10.4c0.1,4.1-2.4,7.8-6.2,9.3l11.9,16.3l-0.3,0.3H185l-0.3-0.3l-11.4-15.3
	h-4.7v15.3l-0.3,0.3h-4.7l-0.3-0.3v-35.8l0.3-0.3H173.8z M168.7,302.9h5.2c3.9,0,6-2.1,6-5.2s-2.1-5.2-6-5.2h-5.2V302.9z"/>
<path class="st0" d="M240.7,305.5c0.1,10.6-8.3,19.3-18.9,19.4c-10.6,0.1-19.3-8.3-19.4-18.9c-0.1-10.6,8.3-19.3,18.9-19.4
	c0.1,0,0.2,0,0.3,0C232.1,286.5,240.7,295,240.7,305.5z M208.3,305.5c0.2,7.3,6.2,13.1,13.5,12.9c7.3-0.2,13.1-6.2,12.9-13.5
	c-0.2-7.2-6-13-13.2-12.9C214.2,292.1,208.3,298.1,208.3,305.5C208.3,305.5,208.3,305.5,208.3,305.5z"/>
<path class="st0" d="M262.5,287.4l0.5,0.3l13,15.8l13-15.8l0.5-0.3h4.4l0.3,0.3v35.8l-0.3,0.3h-4.7l-0.3-0.3v-28.3l-12.7,15.6h-0.5
	l-12.7-15.6v28.3l-0.3,0.3h-4.7l-0.3-0.3v-35.8l0.3-0.3H262.5z"/>
<path class="st0" d="M334.9,287.4l0.3,0.3v4.7l-0.3,0.3H318v8.6h12.7l0.3,0.3v4.6l-0.3,0.3H318v12.2h18.4l0.3,0.3v4.7l-0.3,0.3
	h-23.3l-0.3-0.3v-35.8l0.3-0.3H334.9z"/>
<path class="st0" d="M387,305.5c0.1,10.6-8.3,19.3-18.9,19.4c-10.6,0.1-19.3-8.3-19.4-18.9c-0.1-10.6,8.3-19.3,18.9-19.4
	c0.1,0,0.2,0,0.3,0C378.3,286.5,386.9,295,387,305.5z M354.6,305.5c0.2,7.3,6.2,13.1,13.5,12.9c7.3-0.2,13.1-6.2,12.9-13.5
	c-0.2-7.2-6-13-13.2-12.9C360.5,292.1,354.5,298.1,354.6,305.5C354.6,305.5,354.6,305.5,354.6,305.5L354.6,305.5z"/>
<path class="st1" d="M425.2,287.4c7.3,0,12.5,4.9,12.5,11.2s-5.2,11.2-12.5,11.2H419v13.8l-0.3,0.3h-4.7l-0.3-0.3v-35.8l0.2-0.3
	L425.2,287.4z M419,304.5h6.2c3.9,0,6.5-2.6,6.5-6s-2.6-6-6.5-6H419L419,304.5z"/>
<path class="st1" d="M490.6,305.5c0.1,10.6-8.3,19.3-18.9,19.5c-10.6,0.1-19.3-8.3-19.5-18.9c-0.1-10.6,8.3-19.3,18.9-19.5
	c0.1,0,0.2,0,0.3,0C482,286.5,490.5,295,490.6,305.5z M458.2,305.5c0.2,7.3,6.2,13.1,13.5,13s13.1-6.2,13-13.5
	c-0.2-7.2-6-13-13.2-13C464.1,292.1,458.1,298.1,458.2,305.5C458.2,305.5,458.2,305.5,458.2,305.5z"/>
<path class="st1" d="M520.8,287h5.5l4.5,12.5l4.6-12.5h5.5l-6.3,16.4l5.5,13.5l11.5-30.1h6.3l-15.2,36.9h-5l-6.8-16.5l-6.9,16.5h-5
	l-15.2-36.9h6.3l11.5,30.1l5.5-13.5L520.8,287z"/>
<path class="st1" d="M594.8,287.4l0.3,0.3v4.7l-0.3,0.3h-16.8v8.6h12.7l0.3,0.3v4.6l-0.3,0.3h-12.7v12.2h18.4l0.3,0.3v4.7l-0.3,0.3
	h-23.4l-0.3-0.3v-35.8l0.3-0.3L594.8,287.4z"/>
<path class="st1" d="M623.6,287.4c7.3,0,11.9,4.4,11.9,10.4c0.1,4.1-2.4,7.8-6.2,9.4l11.9,16.4l-0.3,0.3h-6.2l-0.2-0.3l-11.4-15.3
	h-4.7v15.3l-0.3,0.3h-4.7l-0.3-0.3v-35.8l0.3-0.3L623.6,287.4z M618.4,302.9h5.2c3.9,0,6-2.1,6-5.2s-2.1-5.2-6-5.2h-5.2V302.9z"/>
</svg>
