<svg id="Layer_1" data-name="Layer 1" xmlns="http://www.w3.org/2000/svg" viewBox="0 0 792 612"><defs><style>.cls-1{fill:#507a38;}</style></defs><path class="cls-1" d="M255.36,437.93c-2.22-2-4.47-4-6.65-6s-4.27-4.21-6.34-6.4l-3-3.36c-1-1.13-2-2.23-3-3.42l-2.87-3.52c-1-1.17-1.93-2.34-2.81-3.58a176,176,0,0,1-19-31.38c-.64-1.4-1.19-2.84-1.7-4.29s-.86-3-1.3-4.44-.86-2.95-1.33-4.42-.8-3-1.21-4.45L205,358.19c-.36-1.49-.66-3-1-4.5l-1-4.51-.77-4.55A195.15,195.15,0,0,1,460,128.37a180.06,180.06,0,0,1,31.63,18.57c4.9,3.59,9.57,7.44,14.06,11.43,2.23,2,4.34,4.17,6.5,6.23s4.12,4.35,6.14,6.53l-7.48-4.86c-2.56-1.5-5-3.08-7.63-4.49-5.13-2.89-10.32-5.59-15.64-8A195.11,195.11,0,0,0,455,142.38,180,180,0,0,0,214.47,308.22,177.67,177.67,0,0,0,225.77,375a200.2,200.2,0,0,0,11.91,32.38c.58,1.34,1.24,2.63,1.9,3.93l2,3.91c1.33,2.61,2.85,5.11,4.27,7.69s3,5,4.58,7.58Z"/><path class="cls-1" d="M272.39,450.34l7.42,4.93c2.55,1.53,5,3.12,7.59,4.58s5.08,2.94,7.69,4.28l3.91,2c1.3.66,2.59,1.33,3.93,1.9a198.92,198.92,0,0,0,32.38,11.91,177.67,177.67,0,0,0,66.79,11.3A180.27,180.27,0,0,0,567.94,250.65a195.74,195.74,0,0,0-11.43-32.57c-2.38-5.32-5.08-10.51-8-15.64-1.42-2.58-3-5.07-4.5-7.63l-4.85-7.48c2.18,2,4.4,4,6.53,6.15s4.21,4.26,6.23,6.5c4,4.49,7.84,9.16,11.43,14.05A180.43,180.43,0,0,1,582,245.66,195.17,195.17,0,0,1,365.69,503.44l-4.55-.77-4.51-1c-1.5-.33-3-.63-4.5-1l-4.46-1.18c-1.49-.4-3-.76-4.46-1.21s-2.93-.91-4.41-1.33-3-.77-4.44-1.29-2.89-1.06-4.29-1.7a176.45,176.45,0,0,1-31.39-19c-1.23-.88-2.4-1.84-3.58-2.81l-3.51-2.87c-1.19-.93-2.29-2-3.42-3l-3.37-3c-2.18-2.07-4.27-4.25-6.39-6.35S274.37,452.56,272.39,450.34Z"/><path class="cls-1" d="M283.33,412.87c-1.77-1.58-3.57-3.17-5.32-4.82s-3.43-3.38-5.09-5.13-3.26-3.57-4.79-5.44l-2.3-2.82c-.78-.94-1.55-1.88-2.26-2.87a141.26,141.26,0,0,1-15.23-25.16c-.51-1.12-1-2.27-1.36-3.44s-.69-2.37-1-3.55-.7-2.37-1.07-3.54-.64-2.38-1-3.57L243,349c-.29-1.19-.53-2.4-.8-3.61l-.77-3.61-.62-3.65A156.43,156.43,0,0,1,447.4,164.73,142.32,142.32,0,0,1,494.16,199a159.74,159.74,0,0,0-50.76-23A144.27,144.27,0,0,0,250.56,308.9a142.42,142.42,0,0,0,9.06,53.53,159.58,159.58,0,0,0,9.55,26c.46,1.07,1,2.11,1.52,3.15l1.59,3.14c1.07,2.09,2.29,4.09,3.43,6.16s2.44,4,3.67,6.08Z"/><path class="cls-1" d="M297,422.82l5.95,3.95c2,1.23,4,2.5,6.08,3.67s4.07,2.36,6.16,3.43l3.14,1.59c1,.53,2.08,1.07,3.15,1.53a160.47,160.47,0,0,0,26,9.54A142.23,142.23,0,0,0,401,455.59,144.5,144.5,0,0,0,533.9,262.75a160,160,0,0,0-23-50.75,142.28,142.28,0,0,1,34.27,46.75A156.46,156.46,0,0,1,371.78,465.39l-3.65-.62-3.61-.78c-1.21-.27-2.42-.5-3.61-.79l-3.58-.95c-1.19-.32-2.39-.61-3.57-1s-2.35-.73-3.54-1.06-2.39-.62-3.55-1-2.32-.85-3.45-1.37a140.36,140.36,0,0,1-25.15-15.23c-1-.71-1.93-1.48-2.87-2.25l-2.82-2.3c-1.87-1.54-3.64-3.21-5.44-4.8s-3.43-3.4-5.13-5.09S298.57,424.6,297,422.82Z"/><path class="cls-1" d="M305.57,393a112.57,112.57,0,0,1-28.11-37.15c-.41-.9-.77-1.83-1.09-2.76s-.55-1.91-.84-2.85-.55-1.91-.85-2.85-.52-1.91-.78-2.87l-.76-2.87c-.23-1-.43-1.93-.64-2.9l-.62-2.9-.5-2.93a125.65,125.65,0,0,1,166-139.25,114.17,114.17,0,0,1,37.55,27.53,128.32,128.32,0,0,0-40.77-18.51,115.86,115.86,0,0,0-154.9,106.78,114.45,114.45,0,0,0,7.27,43A130.77,130.77,0,0,0,305.57,393Z"/><path class="cls-1" d="M316.54,401a130.74,130.74,0,0,0,40.52,19,114.21,114.21,0,0,0,43,7.28,116.07,116.07,0,0,0,106.79-154.9,128.47,128.47,0,0,0-18.51-40.78,114.49,114.49,0,0,1,27.53,37.56,125.69,125.69,0,0,1-139.25,166l-2.93-.5-2.91-.62c-1-.22-1.93-.41-2.9-.64l-2.87-.76c-.95-.26-1.92-.49-2.86-.78s-1.9-.57-2.85-.85-1.92-.5-2.85-.84-1.87-.68-2.77-1.09A112.53,112.53,0,0,1,316.54,401Z"/><path class="cls-1" d="M321.29,378.88a93,93,0,0,1-23.24-30.72,105,105,0,0,1-6.44-38.51,103.89,103.89,0,0,1,138.66-95.59,94.57,94.57,0,0,1,31.06,22.76,106.37,106.37,0,0,0-33.72-15.31,95.81,95.81,0,0,0-128.08,88.3,94.52,94.52,0,0,0,6,35.56A108.2,108.2,0,0,0,321.29,378.88Z"/><path class="cls-1" d="M330.36,385.48a107.87,107.87,0,0,0,33.51,15.75,94.31,94.31,0,0,0,35.55,6,96,96,0,0,0,88.3-128.09,106.17,106.17,0,0,0-15.3-33.71,94.61,94.61,0,0,1,22.76,31.06,103.71,103.71,0,0,1-95.59,138.65,105,105,0,0,1-38.52-6.43A93,93,0,0,1,330.36,385.48Z"/><path class="cls-1" d="M337.91,364a72.34,72.34,0,0,1-18.1-23.92,81.89,81.89,0,0,1-5-30,80.9,80.9,0,0,1,108-74.43A73.44,73.44,0,0,1,447,253.37a82.67,82.67,0,0,0-26.25-11.92A74.6,74.6,0,0,0,321,310.22a73.66,73.66,0,0,0,4.68,27.69A84.16,84.16,0,0,0,337.91,364Z"/><path class="cls-1" d="M345,369.14a84.38,84.38,0,0,0,26.09,12.27,73.62,73.62,0,0,0,27.69,4.68,74.74,74.74,0,0,0,68.76-99.74,82.72,82.72,0,0,0-11.92-26.26,73.75,73.75,0,0,1,17.73,24.19,80.77,80.77,0,0,1-74.44,108,81.58,81.58,0,0,1-30-5A72.23,72.23,0,0,1,345,369.14Z"/><path class="cls-1" d="M348,354.93a59.87,59.87,0,0,1-15-19.78,67.66,67.66,0,0,1-4.14-24.8A66.91,66.91,0,0,1,418.2,248.8a60.87,60.87,0,0,1,20,14.66,68.38,68.38,0,0,0-21.71-9.86A61.68,61.68,0,0,0,334,310.46a60.82,60.82,0,0,0,3.87,22.9A69.56,69.56,0,0,0,348,354.93Z"/><path class="cls-1" d="M353.87,359.18a69.59,69.59,0,0,0,21.57,10.15,61,61,0,0,0,22.9,3.87,61.82,61.82,0,0,0,56.86-82.48,68.55,68.55,0,0,0-9.86-21.7A61,61,0,0,1,460,289a66.8,66.8,0,0,1-61.55,89.29,67.67,67.67,0,0,1-24.8-4.15A59.87,59.87,0,0,1,353.87,359.18Z"/><path class="cls-1" d="M357.54,346.41a48.2,48.2,0,0,1-12-15.88A53.65,53.65,0,0,1,394,258.14a52.19,52.19,0,0,1,20,3A49,49,0,0,1,430,272.93,54.94,54.94,0,0,0,412.54,265a48.23,48.23,0,0,0-18.44-2.79,49.37,49.37,0,0,0-47.79,48.47,47.82,47.82,0,0,0,3.09,18.38A55.75,55.75,0,0,0,357.54,346.41Z"/><path class="cls-1" d="M362.23,349.83A55.86,55.86,0,0,0,379.56,358,47.84,47.84,0,0,0,398,361.06a49.15,49.15,0,0,0,18.25-3.85,49.49,49.49,0,0,0,30.21-43.94,47.85,47.85,0,0,0-2.79-18.44,54.94,54.94,0,0,0-7.91-17.43,48.89,48.89,0,0,1,11.77,16.06,52,52,0,0,1,3,20,53.83,53.83,0,0,1-72.39,48.43A48.2,48.2,0,0,1,362.23,349.83Z"/><path class="cls-1" d="M371.37,334a30.93,30.93,0,0,1-7.74-10.23,34.56,34.56,0,0,1,31.19-46.61,33.68,33.68,0,0,1,12.85,1.94A31.63,31.63,0,0,1,418,286.71a35.37,35.37,0,0,0-11.23-5.09,30.93,30.93,0,0,0-11.87-1.8A31.79,31.79,0,0,0,364.14,311a31,31,0,0,0,2,11.84A36.36,36.36,0,0,0,371.37,334Z"/><path class="cls-1" d="M374.39,336.23a36.1,36.1,0,0,0,11.16,5.24,31,31,0,0,0,11.84,2,31.86,31.86,0,0,0,31.2-30.77,31,31,0,0,0-1.79-11.88,35.13,35.13,0,0,0-5.1-11.22,31.34,31.34,0,0,1,7.58,10.34,33.5,33.5,0,0,1,2,12.85A34.54,34.54,0,0,1,421,336.17a35,35,0,0,1-10.81,7.24,35.14,35.14,0,0,1-25.55.55A30.91,30.91,0,0,1,374.39,336.23Z"/></svg>