<svg id="Layer_1" data-name="Layer 1" xmlns="http://www.w3.org/2000/svg" viewBox="0 0 792 612"><defs><style>.cls-1{fill:#595a5a;}.cls-2{fill:#507a38;}</style></defs><path class="cls-1" d="M255.91,287.41c7.26,0,11.93,4.41,11.93,10.37a9.87,9.87,0,0,1-6.23,9.34l11.93,16.34-.26.25h-6.22l-.26-.25-11.41-15.3h-4.67v15.3l-.26.25h-4.67l-.26-.25V287.67l.26-.26ZM250.72,303h5.19c3.89,0,6-2.08,6-5.19s-2.07-5.18-6-5.18h-5.19Z"/><path class="cls-1" d="M322.82,305.56a19.19,19.19,0,1,1-19.19-18.93A19.09,19.09,0,0,1,322.82,305.56Zm-32.42,0a13.23,13.23,0,1,0,13.23-13.48A13.34,13.34,0,0,0,290.4,305.56Z"/><path class="cls-1" d="M344.6,287.41l.52.26,13,15.82,13-15.82.52-.26H376l.26.26v35.79l-.26.25h-4.67l-.26-.25V295.19l-12.7,15.56h-.52l-12.71-15.56v28.27l-.26.25h-4.67l-.25-.25V287.67l.25-.26Z"/><path class="cls-1" d="M417,287.41l.26.26v4.67l-.26.26H400.1v8.55h12.71l.26.26v4.67l-.26.26H400.1v12.19h18.41l.26.26v4.67l-.26.25H395.17l-.25-.25V287.67l.25-.26Z"/><path class="cls-1" d="M469.08,305.56a19.19,19.19,0,1,1-19.19-18.93A19.09,19.09,0,0,1,469.08,305.56Zm-32.41,0a13.23,13.23,0,1,0,13.22-13.48A13.34,13.34,0,0,0,436.67,305.56Z"/><path class="cls-1" d="M255.91,287.36c7.26,0,11.92,4.41,11.92,10.38a9.85,9.85,0,0,1-6.22,9.33l11.93,16.34-.26.26h-6.22l-.26-.26-11.41-15.3h-4.67v15.3l-.26.26h-4.67l-.26-.26V287.62l.26-.26Zm-5.19,15.56h5.19c3.89,0,6-2.07,6-5.18s-2.07-5.19-6-5.19h-5.19Z"/><path class="cls-1" d="M322.81,305.51a19.19,19.19,0,1,1-19.19-18.93A19.1,19.1,0,0,1,322.81,305.51Zm-32.41,0A13.23,13.23,0,1,0,303.62,292,13.34,13.34,0,0,0,290.4,305.51Z"/><path class="cls-1" d="M344.6,287.36l.52.26,13,15.82,13-15.82.52-.26H376l.26.26v35.79l-.26.26h-4.67l-.26-.26V295.14l-12.7,15.56h-.52l-12.71-15.56v28.27l-.26.26h-4.67l-.26-.26V287.62l.26-.26Z"/><path class="cls-1" d="M417,287.36l.26.26v4.67l-.26.26H400.1v8.56h12.71l.26.26V306l-.26.26H400.1v12.19h18.41l.26.26v4.67l-.26.26H395.17l-.26-.26V287.62l.26-.26Z"/><path class="cls-1" d="M469.08,305.51a19.19,19.19,0,1,1-19.19-18.93A19.1,19.1,0,0,1,469.08,305.51Zm-32.41,0A13.23,13.23,0,1,0,449.89,292,13.34,13.34,0,0,0,436.67,305.51Z"/><path class="cls-2" d="M507.28,287.35c7.27,0,12.46,4.93,12.46,11.16s-5.19,11.16-12.46,11.16h-6.23v13.76l-.26.26h-4.67l-.26-.26V287.61l.21-.26Zm-6.23,17.13h6.23c3.9,0,6.49-2.59,6.49-6s-2.59-6-6.49-6h-6.23Z"/><path class="cls-2" d="M572.69,305.52a19.21,19.21,0,1,1-19.2-18.95A19.1,19.1,0,0,1,572.69,305.52Zm-32.44,0A13.24,13.24,0,1,0,553.49,292,13.35,13.35,0,0,0,540.25,305.52Z"/><path class="cls-2" d="M602.91,287h5.5l4.52,12.51L617.5,287H623l-6.29,16.4,5.51,13.55,11.47-30.11H640l-15.22,36.86h-5L613,307.18l-6.91,16.51h-5l-15.21-36.86h6.33l11.53,30.11,5.5-13.55Z"/><path class="cls-2" d="M676.83,287.35l.26.26v4.67l-.26.26H660v8.57h12.72l.26.26V306l-.26.26H660v12.2h18.43l.26.26v4.67l-.26.26H655l-.26-.26V287.61l.26-.26Z"/><path class="cls-2" d="M705.64,287.35c7.27,0,11.94,4.41,11.94,10.38a9.86,9.86,0,0,1-6.23,9.35l11.94,16.35-.26.26H716.8l-.25-.26-11.43-15.31h-4.67v15.31l-.26.26h-4.67l-.26-.26V287.61l.26-.26Zm-5.19,15.58h5.19c3.9,0,6-2.08,6-5.2s-2.07-5.19-6-5.19h-5.19Z"/><path class="cls-2" d="M87,353.47a64.61,64.61,0,0,1-16.16-21.35,73,73,0,0,1-4.47-26.77,72.22,72.22,0,0,1,96.36-66.43,65.84,65.84,0,0,1,21.58,15.82,73.8,73.8,0,0,0-23.43-10.63,66.59,66.59,0,0,0-89,61.36,65.64,65.64,0,0,0,4.18,24.71A75.08,75.08,0,0,0,87,353.47Z"/><path class="cls-2" d="M93.33,358.06A74.89,74.89,0,0,0,116.61,369a65.67,65.67,0,0,0,24.71,4.18,66.68,66.68,0,0,0,61.36-89,73.9,73.9,0,0,0-10.63-23.43,65.84,65.84,0,0,1,15.82,21.58,72.08,72.08,0,0,1-66.43,96.36,73,73,0,0,1-26.77-4.47A64.68,64.68,0,0,1,93.33,358.06Z"/><path class="cls-2" d="M97.38,344.19a51.83,51.83,0,0,1-12.95-17.1,57.77,57.77,0,0,1,52.16-78,56,56,0,0,1,21.5,3.25,52.61,52.61,0,0,1,17.3,12.68,59.17,59.17,0,0,0-18.78-8.53,51.8,51.8,0,0,0-19.86-3,53.18,53.18,0,0,0-51.47,52.2,51.83,51.83,0,0,0,3.32,19.8A60.16,60.16,0,0,0,97.38,344.19Z"/><path class="cls-2" d="M102.43,347.87a60.26,60.26,0,0,0,18.66,8.78,51.86,51.86,0,0,0,19.8,3.32,53.13,53.13,0,0,0,19.66-4.14,53.66,53.66,0,0,0,28.1-27.75,53.08,53.08,0,0,0,4.44-19.58,51.86,51.86,0,0,0-3-19.86,59,59,0,0,0-8.53-18.77,52.47,52.47,0,0,1,12.68,17.29,56.23,56.23,0,0,1,3.26,21.5,58,58,0,0,1-78,52.16A51.83,51.83,0,0,1,102.43,347.87Z"/><path class="cls-2" d="M105.61,336.82a41.47,41.47,0,0,1-10.4-13.74A47.17,47.17,0,0,1,96,288.75a46.33,46.33,0,0,1,41.15-28.29,45.12,45.12,0,0,1,17.26,2.61,42.19,42.19,0,0,1,13.9,10.19,47.48,47.48,0,0,0-15.09-6.85,41.61,41.61,0,0,0-16-2.41,42.72,42.72,0,0,0-15.73,3.56,43.1,43.1,0,0,0-22.28,22.57,42.47,42.47,0,0,0-3.33,15.8,41.44,41.44,0,0,0,2.67,15.9A48.09,48.09,0,0,0,105.61,336.82Z"/><path class="cls-2" d="M109.66,339.78a48.53,48.53,0,0,0,15,7.05,41.72,41.72,0,0,0,15.91,2.67,42.77,42.77,0,0,0,15.79-3.33,43,43,0,0,0,22.57-22.29,42.64,42.64,0,0,0,3.57-15.73,41.64,41.64,0,0,0-2.41-15.95,47.43,47.43,0,0,0-6.85-15.08A42.29,42.29,0,0,1,183.42,291,45.14,45.14,0,0,1,186,308.28a46.11,46.11,0,0,1-3.86,17A46.2,46.2,0,0,1,140.64,353a46.12,46.12,0,0,1-17.24-2.86A41.81,41.81,0,0,1,109.66,339.78Z"/><path class="cls-2" d="M111.42,331.61a34.4,34.4,0,0,1-8.6-11.36,39.05,39.05,0,0,1,.62-28.38,38.58,38.58,0,0,1,20-20.21,38.22,38.22,0,0,1,14.08-3.19,37.35,37.35,0,0,1,14.28,2.16,35.08,35.08,0,0,1,11.49,8.42,39.18,39.18,0,0,0-12.48-5.66,34.18,34.18,0,0,0-13.18-2,35.3,35.3,0,0,0-34.19,34.67,34.12,34.12,0,0,0,2.21,13.15A40,40,0,0,0,111.42,331.61Z"/><path class="cls-2" d="M114.78,334.06a40.08,40.08,0,0,0,12.39,5.83,34.32,34.32,0,0,0,13.16,2.2,35.16,35.16,0,0,0,13.06-2.75,35.83,35.83,0,0,0,11.09-7.43,35.44,35.44,0,0,0,10.52-24,34.4,34.4,0,0,0-2-13.19,39,39,0,0,0-5.66-12.47,34.8,34.8,0,0,1,8.42,11.48A37.18,37.18,0,0,1,177.92,308a38.5,38.5,0,0,1-51.78,34.65A34.4,34.4,0,0,1,114.78,334.06Z"/><path class="cls-2" d="M117.57,326.11a26.58,26.58,0,0,1-6.69-8.85,30.29,30.29,0,0,1,.48-22.11,29.92,29.92,0,0,1,26.49-18.21A28.83,28.83,0,0,1,149,278.62a27.21,27.21,0,0,1,8.95,6.56,30.45,30.45,0,0,0-9.71-4.41,26.6,26.6,0,0,0-10.27-1.55,27.51,27.51,0,0,0-26.63,27A26.93,26.93,0,0,0,113,316.46,31.17,31.17,0,0,0,117.57,326.11Z"/><path class="cls-2" d="M120.18,328a31.17,31.17,0,0,0,9.65,4.54,26.93,26.93,0,0,0,10.25,1.72,27.38,27.38,0,0,0,10.17-2.15,27.64,27.64,0,0,0,16.83-24.47,26.77,26.77,0,0,0-1.56-10.27,30.59,30.59,0,0,0-4.4-9.72,27.32,27.32,0,0,1,6.55,8.95,29,29,0,0,1,1.69,11.12,30,30,0,0,1-40.33,27A26.74,26.74,0,0,1,120.18,328Z"/><path class="cls-2" d="M121.32,322.75a22.07,22.07,0,0,1-5.54-7.31,25.15,25.15,0,0,1,.4-18.28,24.76,24.76,0,0,1,21.91-15.07,24.19,24.19,0,0,1,9.19,1.4,22.41,22.41,0,0,1,7.4,5.42,25.48,25.48,0,0,0-8-3.65,22.09,22.09,0,0,0-8.49-1.28,22.78,22.78,0,0,0-22,22.32,22.43,22.43,0,0,0,1.42,8.47A25.88,25.88,0,0,0,121.32,322.75Z"/><path class="cls-2" d="M123.48,324.33a25.62,25.62,0,0,0,8,3.75,22,22,0,0,0,8.47,1.42,22.78,22.78,0,0,0,22.32-22A22.09,22.09,0,0,0,161,299a25.43,25.43,0,0,0-3.65-8,22.41,22.41,0,0,1,5.42,7.4,24,24,0,0,1,1.4,9.2,24.78,24.78,0,0,1-33.35,22.3A22,22,0,0,1,123.48,324.33Z"/><path class="cls-2" d="M124.84,319.6a17.55,17.55,0,0,1-4.45-5.88,19.86,19.86,0,0,1,17.92-26.78,19.14,19.14,0,0,1,7.38,1.12,18.64,18.64,0,0,1,5.95,4.35,19.86,19.86,0,0,0-6.46-2.92,17.75,17.75,0,0,0-6.82-1,18.32,18.32,0,0,0-17.68,17.94,17.73,17.73,0,0,0,1.14,6.8A20.76,20.76,0,0,0,124.84,319.6Z"/><path class="cls-2" d="M126.57,320.87a20.73,20.73,0,0,0,6.41,3,17.78,17.78,0,0,0,6.81,1.14,18.31,18.31,0,0,0,17.93-17.68,17.8,17.8,0,0,0-1-6.82,20,20,0,0,0-2.93-6.45,18.34,18.34,0,0,1,4.35,5.94,19.14,19.14,0,0,1,1.12,7.38,19.89,19.89,0,0,1-26.78,17.92A17.76,17.76,0,0,1,126.57,320.87Z"/><path class="cls-2" d="M130,315a11.71,11.71,0,0,1-2.86-3.79,12.57,12.57,0,0,1-.79-4.74A12.75,12.75,0,0,1,138.63,294a12.4,12.4,0,0,1,4.75.72,11.82,11.82,0,0,1,3.83,2.8,12.71,12.71,0,0,0-4.15-1.88,11.58,11.58,0,0,0-4.4-.67,11.78,11.78,0,0,0-8,3.51,11.66,11.66,0,0,0-3.39,8,11.47,11.47,0,0,0,.73,4.38A13.1,13.1,0,0,0,130,315Z"/><path class="cls-2" d="M131.07,315.83a12.88,12.88,0,0,0,4.13,1.94,11.47,11.47,0,0,0,4.38.74,11.79,11.79,0,0,0,11.55-11.39,11.5,11.5,0,0,0-.67-4.39,12.62,12.62,0,0,0-1.88-4.15,11.78,11.78,0,0,1,2.8,3.82,12.45,12.45,0,0,1,.72,4.76,12.84,12.84,0,0,1-17.25,11.54A11.81,11.81,0,0,1,131.07,315.83Z"/></svg>