<?xml version="1.0" encoding="utf-8"?>
<!-- Generator: Adobe Illustrator 24.3.0, SVG Export Plug-In . SVG Version: 6.00 Build 0)  -->
<svg version="1.1" id="Layer_1" xmlns="http://www.w3.org/2000/svg" xmlns:xlink="http://www.w3.org/1999/xlink" x="0px" y="0px"
	 viewBox="0 0 320 240" style="enable-background:new 0 0 320 240;" xml:space="preserve">
<style type="text/css">
	.st0{fill:#507A38;}
	.st1{fill:#FFFFFF;}
</style>
<rect class="st0" width="320" height="240"/>
<path class="st1" d="M135.3,189.2c1.8,0,3,1.2,3,2.7c0,1.5-1.3,2.7-3,2.7h-1.5v3.3l-0.1,0.1h-1.1l-0.1-0.1v-8.7l0-0.1H135.3z
	 M133.8,193.4h1.5c0.8,0.1,1.5-0.5,1.6-1.4c0.1-0.8-0.5-1.5-1.4-1.6c-0.1,0-0.1,0-0.2,0h-1.5V193.4z"/>
<path class="st1" d="M151.2,193.6c0,2.6-2,4.7-4.6,4.7s-4.7-2-4.7-4.6c0-2.6,2-4.7,4.6-4.7c0,0,0,0,0.1,0
	C149.1,189,151.2,191,151.2,193.6z M143.3,193.6c0,1.8,1.5,3.2,3.3,3.1c1.8,0,3.2-1.5,3.1-3.3c0-1.7-1.5-3.1-3.2-3.1
	C144.7,190.3,143.3,191.8,143.3,193.6C143.3,193.6,143.3,193.6,143.3,193.6z"/>
<path class="st1" d="M158.4,189.4h1.3l1.1,3l1.1-3h1.3l-1.5,3.9l1.3,3.2l2.7-7.1h1.5l-3.6,8.7h-1.2l-1.6-3.9l-1.6,3.9H158l-3.6-8.7
	h1.5l2.7,7.1l1.3-3.2L158.4,189.4z"/>
<path class="st1" d="M176.1,189.2L176.1,189.2l0.1,1.2l-0.1,0.1H172v2.1h3.1l0.1,0.1v1.1l-0.1,0.1H172v3h4.5l0.1,0.1v1.1l-0.1,0.1
	h-5.7l-0.1-0.1v-8.7l0.1-0.1H176.1z"/>
<path class="st1" d="M183.1,189.2c1.8,0,2.9,1.1,2.9,2.5c0,1-0.6,1.9-1.5,2.3l2.9,4l-0.1,0.1h-1.5l-0.1-0.1l-2.8-3.7h-1.1v3.7
	l-0.1,0.1h-1.1l-0.1-0.1v-8.7l0.1-0.1H183.1z M181.8,193h1.3c0.9,0,1.5-0.5,1.5-1.3c0-0.8-0.5-1.3-1.5-1.3h-1.3V193z"/>
<path class="st1" d="M100.2,156.5c4.3,0,7,2.6,7,6.1c0,2.4-1.4,4.6-3.7,5.5l7,9.6l-0.2,0.2h-3.7l-0.1-0.2l-6.7-9h-2.8v9L97,178h-2.8
	l-0.1-0.2v-21.1l0.1-0.2L100.2,156.5z M97.1,165.7h3.1c2.3,0,3.5-1.2,3.5-3.1c0-1.8-1.2-3.1-3.5-3.1h-3.1V165.7z"/>
<path class="st1" d="M139.6,167.3c0.1,6.2-4.9,11.4-11.2,11.5c-6.2,0.1-11.4-4.9-11.5-11.2c-0.1-6.2,4.9-11.4,11.2-11.5
	c0.1,0,0.1,0,0.2,0C134.5,156.1,139.6,161.1,139.6,167.3z M120.5,167.3c0.1,4.3,3.6,7.7,7.9,7.6c4.3-0.1,7.7-3.6,7.6-7.9
	c-0.1-4.2-3.5-7.6-7.8-7.6C124,159.3,120.5,162.9,120.5,167.3C120.5,167.2,120.5,167.2,120.5,167.3z"/>
<path class="st1" d="M152.4,156.5l0.3,0.2l7.6,9.3l7.6-9.3l0.3-0.2h2.6l0.2,0.2v21.1l-0.2,0.2h-2.8l-0.2-0.2v-16.7l-7.5,9.2h-0.3
	l-7.5-9.2v16.7l-0.2,0.2h-2.8l-0.2-0.2v-21.1l0.2-0.2L152.4,156.5z"/>
<path class="st1" d="M195.1,156.5l0.1,0.2v2.8l-0.1,0.2h-9.9v5h7.5l0.2,0.1v2.8l-0.2,0.2h-7.5v7.2H196l0.2,0.2v2.8L196,178h-13.7
	l-0.2-0.2v-21.1l0.2-0.2L195.1,156.5z"/>
<path class="st1" d="M225.8,167.3c0.1,6.2-4.9,11.4-11.2,11.5c-6.2,0.1-11.4-4.9-11.5-11.2c-0.1-6.2,4.9-11.4,11.2-11.5
	c0.1,0,0.1,0,0.2,0C220.7,156.1,225.7,161.1,225.8,167.3z M206.7,167.3c0.1,4.3,3.6,7.7,7.9,7.6c4.3-0.1,7.7-3.6,7.6-7.9
	c-0.1-4.2-3.5-7.6-7.8-7.6C210.1,159.3,206.7,162.9,206.7,167.3C206.7,167.2,206.7,167.2,206.7,167.3z"/>
<path class="st1" d="M127.3,121.2c-4.3-3.7-7.7-8.3-10.1-13.4c-0.1-0.3-0.3-0.7-0.4-1c-0.1-0.3-0.2-0.7-0.3-1
	c-0.1-0.3-0.2-0.7-0.3-1s-0.2-0.7-0.3-1l-0.3-1c-0.1-0.4-0.2-0.7-0.2-1l-0.2-1l-0.2-1.1c-4.1-24.6,12.5-48,37.1-52.1
	c7.6-1.3,15.4-0.6,22.7,2c5.1,2.3,9.7,5.7,13.5,9.9c-4.5-3.1-9.4-5.3-14.7-6.7c-21.7-7.8-45.6,3.5-53.4,25.2
	c-1.5,4.3-2.3,8.7-2.4,13.2c-0.1,5.3,0.8,10.5,2.6,15.5C121.9,111.8,124.2,116.7,127.3,121.2z"/>
<path class="st1" d="M131.3,124.1c4.4,3.1,9.4,5.4,14.6,6.9c5,1.9,10.2,2.7,15.5,2.6c23.1-0.5,41.4-19.7,40.8-42.7
	c-0.1-4.4-0.9-8.9-2.4-13c-1.3-5.2-3.6-10.2-6.7-14.7c4.2,3.8,7.6,8.4,9.9,13.5c8.4,23.6-4,49.4-27.5,57.8c-7.3,2.6-15,3.3-22.6,2
	l-1.1-0.2l-1-0.2c-0.4-0.1-0.7-0.1-1-0.2l-1-0.3c-0.4-0.1-0.7-0.2-1-0.3c-0.3-0.1-0.7-0.2-1-0.3s-0.7-0.2-1-0.3s-0.7-0.2-1-0.4
	C139.5,131.8,135,128.3,131.3,124.1z"/>
<path class="st1" d="M133.8,115.4c-3.4-3-6.2-6.6-8.1-10.7c-1.6-4.3-2.3-8.9-2.2-13.4c0.4-20,17.1-35.9,37.1-35.5
	c3.9,0.1,7.7,0.8,11.3,2.1c4.1,1.9,7.8,4.6,10.8,7.9c-3.6-2.5-7.6-4.3-11.8-5.4c-17.4-6.2-36.5,2.8-42.8,20.2c-1.2,3.4-1.9,7-2,10.6
	c-0.1,4.2,0.6,8.4,2.1,12.4C129.4,107.9,131.3,111.8,133.8,115.4z"/>
<path class="st1" d="M137,117.7c3.6,2.5,7.5,4.4,11.7,5.5c4,1.5,8.2,2.2,12.4,2.1c18.5-0.4,33.2-15.7,32.8-34.2
	c-0.1-3.6-0.7-7.1-1.9-10.5c-1.1-4.2-2.9-8.2-5.4-11.8c3.4,3,6.1,6.7,7.9,10.8c6.7,18.8-3.1,39.6-21.9,46.3c-3.7,1.3-7.6,2-11.5,2.1
	c-4.6,0.1-9.1-0.7-13.4-2.2C143.6,123.9,139.9,121.1,137,117.7z"/>
<path class="st1" d="M139,110.7c-2.7-2.4-5-5.3-6.5-8.6c-1.3-3.5-1.9-7.1-1.8-10.8c0.4-16.1,13.7-28.8,29.8-28.5
	c3.1,0.1,6.2,0.6,9.1,1.7c3.3,1.5,6.3,3.7,8.7,6.4c-2.9-2-6.1-3.4-9.5-4.3c-14-5-29.4,2.3-34.4,16.2c-1,2.7-1.5,5.6-1.6,8.5
	c-0.1,3.4,0.5,6.8,1.7,10C135.5,104.7,137,107.9,139,110.7z"/>
<path class="st1" d="M141.5,112.6c2.9,2,6,3.5,9.4,4.4c3.2,1.2,6.6,1.8,10,1.7c14.9-0.3,26.6-12.7,26.3-27.5
	c-0.1-2.9-0.6-5.7-1.6-8.4c-0.9-3.4-2.3-6.6-4.3-9.5c2.7,2.4,4.9,5.4,6.4,8.7c5.4,15.1-2.4,31.8-17.6,37.2c-3,1.1-6.1,1.6-9.2,1.7
	c-3.7,0.1-7.3-0.5-10.8-1.8C146.8,117.6,143.9,115.4,141.5,112.6z"/>
<path class="st1" d="M142.6,107.5c-2.3-2-4.1-4.4-5.4-7.1c-1.1-2.9-1.6-5.9-1.5-8.9c0.3-13.3,11.3-23.8,24.6-23.6
	c2.6,0.1,5.1,0.5,7.5,1.4c2.7,1.2,5.2,3,7.2,5.3c-2.4-1.6-5-2.8-7.8-3.6c-11.6-4.1-24.3,1.9-28.4,13.4c-0.8,2.3-1.2,4.6-1.3,7
	c-0.1,2.8,0.4,5.6,1.4,8.2C139.7,102.5,141,105.1,142.6,107.5z"/>
<path class="st1" d="M144.7,109c2.4,1.7,5,2.9,7.8,3.7c5.3,2,11.2,1.8,16.4-0.4c10.9-4.6,16.2-16.9,12.3-28
	c-0.7-2.8-1.9-5.4-3.5-7.8c2.2,2,4,4.5,5.3,7.2c4.5,12.5-2,26.3-14.5,30.8c-2.4,0.9-5,1.3-7.6,1.4c-3,0.1-6.1-0.4-8.9-1.5
	C149.1,113.1,146.7,111.3,144.7,109z"/>
<path class="st1" d="M146.5,104c-1.8-1.5-3.2-3.4-4.2-5.5c-3.6-9.7,1.3-20.5,11-24.1c1.9-0.7,3.9-1.1,5.9-1.2c2.4-0.1,4.7,0.3,7,1.1
	c2.1,1,4,2.4,5.6,4.1c-1.9-1.3-3.9-2.2-6.1-2.8c-2.1-0.7-4.2-1.1-6.4-1c-4.4,0.1-8.6,2-11.7,5.1c-1.5,1.6-2.8,3.4-3.6,5.4
	c-0.8,2-1.3,4.2-1.3,6.4c-0.1,2.2,0.3,4.4,1.1,6.4C144.2,100.2,145.2,102.2,146.5,104z"/>
<path class="st1" d="M148.1,105.2c1.8,1.3,3.9,2.3,6,2.9c2.1,0.8,4.2,1.1,6.4,1.1c9.2-0.2,16.6-7.5,16.9-16.7c0.1-2.2-0.2-4.4-1-6.4
	c-0.6-2.2-1.5-4.2-2.8-6.1c1.7,1.6,3.1,3.5,4.1,5.6c0.8,2.2,1.2,4.6,1.1,7c-0.1,2.4-0.6,4.7-1.6,6.9c-1.9,4.4-5.5,7.9-9.9,9.7
	c-4.4,1.8-9.4,1.9-13.9,0.3C151.5,108.4,149.6,107,148.1,105.2z"/>
<path class="st1" d="M148.8,101.9c-1.5-1.3-2.6-2.8-3.5-4.6c-1.4-3.7-1.3-7.8,0.2-11.5c1.5-3.6,4.4-6.6,8-8.2
	c1.8-0.8,3.7-1.2,5.7-1.3c2-0.1,3.9,0.2,5.8,0.9c1.8,0.8,3.3,2,4.6,3.4c-1.5-1-3.2-1.8-5-2.3c-1.7-0.6-3.5-0.9-5.3-0.8
	c-1.8,0.1-3.6,0.5-5.2,1.2c-5.1,2.2-8.5,7.2-8.5,12.8c-0.1,1.8,0.2,3.6,0.9,5.3C146.9,98.7,147.7,100.4,148.8,101.9z"/>
<path class="st1" d="M150.2,102.9c1.5,1.1,3.2,1.9,5,2.4c1.7,0.6,3.5,0.9,5.3,0.9c1.8,0,3.6-0.4,5.3-1.1c3.4-1.4,6.1-4.1,7.5-7.4
	c0.7-1.7,1.1-3.4,1.2-5.2c0.1-1.8-0.2-3.6-0.8-5.3c-0.5-1.8-1.2-3.5-2.3-5c1.4,1.3,2.6,2.9,3.4,4.6c0.7,1.8,1,3.8,0.9,5.8
	c-0.3,8.6-7.5,15.3-16.1,14.9c-1.6-0.1-3.2-0.4-4.8-0.9C153,105.6,151.4,104.4,150.2,102.9z"/>
<path class="st1" d="M151,100c-1.2-1-2.1-2.3-2.8-3.7c-2.4-6.4,0.9-13.6,7.3-16c1.2-0.5,2.6-0.7,3.9-0.8c1.6-0.1,3.2,0.2,4.6,0.7
	c1.4,0.6,2.7,1.6,3.7,2.7c-1.2-0.8-2.6-1.5-4-1.8c-1.4-0.5-2.8-0.7-4.3-0.6c-6.1,0.2-11,5.1-11.1,11.2c0,1.5,0.2,2.9,0.7,4.3
	C149.5,97.4,150.2,98.7,151,100z"/>
<path class="st1" d="M152.1,100.7c1.2,0.9,2.6,1.5,4,1.9c1.4,0.5,2.8,0.8,4.3,0.7c6.1-0.1,11-5,11.2-11.1c0.1-1.5-0.2-2.9-0.6-4.3
	c-0.4-1.4-1-2.8-1.8-4c1.2,1,2.1,2.3,2.7,3.7c0.5,1.5,0.8,3.1,0.7,4.6c-0.2,4.8-3.1,9.1-7.6,11c-1.5,0.6-3,0.9-4.6,1
	c-1.6,0-3.1-0.2-4.6-0.8C154.4,102.9,153.1,101.9,152.1,100.7z"/>
<path class="st1" d="M154.2,97.1c-0.8-0.7-1.4-1.5-1.8-2.4c-1.5-4.1,0.6-8.8,4.7-10.3c0.8-0.3,1.7-0.5,2.5-0.5c1,0,2,0.1,3,0.4
	c0.9,0.4,1.7,1,2.4,1.8c-0.8-0.5-1.7-0.9-2.6-1.2c-0.9-0.3-1.8-0.5-2.8-0.4c-3.9,0.1-7.1,3.3-7.1,7.2c0,0.9,0.1,1.9,0.5,2.7
	C153.3,95.4,153.7,96.3,154.2,97.1z"/>
<path class="st1" d="M154.9,97.6c0.8,0.6,1.7,1,2.6,1.2c0.9,0.3,1.8,0.5,2.7,0.5c3.9-0.1,7.1-3.2,7.2-7.1c0-0.9-0.1-1.9-0.4-2.8
	c-0.2-0.9-0.6-1.8-1.2-2.6c0.7,0.7,1.3,1.5,1.8,2.4c0.3,1,0.5,2,0.4,3c-0.1,4.2-3.6,7.6-7.8,7.7c-1,0-2-0.1-3-0.5
	C156.4,99,155.6,98.4,154.9,97.6z"/>
</svg>
